<?xml version="1.0" encoding="utf-8" standalone="no"?>
<!DOCTYPE svg PUBLIC "-//W3C//DTD SVG 1.1//EN"
  "http://www.w3.org/Graphics/SVG/1.1/DTD/svg11.dtd">
<svg xmlns:xlink="http://www.w3.org/1999/xlink" width="720pt" height="288pt" viewBox="0 0 720 288" xmlns="http://www.w3.org/2000/svg" version="1.1">
 <metadata>
  <rdf:RDF xmlns:dc="http://purl.org/dc/elements/1.1/" xmlns:cc="http://creativecommons.org/ns#" xmlns:rdf="http://www.w3.org/1999/02/22-rdf-syntax-ns#">
   <cc:Work>
    <dc:type rdf:resource="http://purl.org/dc/dcmitype/StillImage"/>
    <dc:date>2026-03-25T15:56:33.124194</dc:date>
    <dc:format>image/svg+xml</dc:format>
    <dc:creator>
     <cc:Agent>
      <dc:title>Matplotlib v3.10.8, https://matplotlib.org/</dc:title>
     </cc:Agent>
    </dc:creator>
   </cc:Work>
  </rdf:RDF>
 </metadata>
 <defs>
  <style type="text/css">*{stroke-linejoin: round; stroke-linecap: butt}</style>
 </defs>
 <g id="figure_1">
  <g id="patch_1">
   <path d="M 0 288 
L 720 288 
L 720 0 
L 0 0 
z
" style="fill: #ffffff"/>
  </g>
  <g id="axes_1">
   <g id="patch_2">
    <path d="M 90 256.32 
L 648 256.32 
L 648 34.56 
L 90 34.56 
z
" style="fill: #ffffff"/>
   </g>
   <g id="FillBetweenPolyCollection_1"/>
   <g id="matplotlib.axis_1">
    <g id="xtick_1">
     <g id="line2d_1">
      <defs>
       <path id="mee1b71634e" d="M 0 0 
L 0 3.5 
" style="stroke: #000000; stroke-width: 0.8"/>
      </defs>
      <g>
       <use xlink:href="#mee1b71634e" x="104.601132" y="256.32" style="stroke: #000000; stroke-width: 0.8"/>
      </g>
     </g>
     <g id="text_1">
      <!-- 2024-04 -->
      <g transform="translate(83.709725 270.918437) scale(0.1 -0.1)">
       <defs>
        <path id="DejaVuSans-32" d="M 1228 531 
L 3431 531 
L 3431 0 
L 469 0 
L 469 531 
Q 828 903 1448 1529 
Q 2069 2156 2228 2338 
Q 2531 2678 2651 2914 
Q 2772 3150 2772 3378 
Q 2772 3750 2511 3984 
Q 2250 4219 1831 4219 
Q 1534 4219 1204 4116 
Q 875 4013 500 3803 
L 500 4441 
Q 881 4594 1212 4672 
Q 1544 4750 1819 4750 
Q 2544 4750 2975 4387 
Q 3406 4025 3406 3419 
Q 3406 3131 3298 2873 
Q 3191 2616 2906 2266 
Q 2828 2175 2409 1742 
Q 1991 1309 1228 531 
z
" transform="scale(0.015625)"/>
        <path id="DejaVuSans-30" d="M 2034 4250 
Q 1547 4250 1301 3770 
Q 1056 3291 1056 2328 
Q 1056 1369 1301 889 
Q 1547 409 2034 409 
Q 2525 409 2770 889 
Q 3016 1369 3016 2328 
Q 3016 3291 2770 3770 
Q 2525 4250 2034 4250 
z
M 2034 4750 
Q 2819 4750 3233 4129 
Q 3647 3509 3647 2328 
Q 3647 1150 3233 529 
Q 2819 -91 2034 -91 
Q 1250 -91 836 529 
Q 422 1150 422 2328 
Q 422 3509 836 4129 
Q 1250 4750 2034 4750 
z
" transform="scale(0.015625)"/>
        <path id="DejaVuSans-34" d="M 2419 4116 
L 825 1625 
L 2419 1625 
L 2419 4116 
z
M 2253 4666 
L 3047 4666 
L 3047 1625 
L 3713 1625 
L 3713 1100 
L 3047 1100 
L 3047 0 
L 2419 0 
L 2419 1100 
L 313 1100 
L 313 1709 
L 2253 4666 
z
" transform="scale(0.015625)"/>
        <path id="DejaVuSans-2d" d="M 313 2009 
L 1997 2009 
L 1997 1497 
L 313 1497 
L 313 2009 
z
" transform="scale(0.015625)"/>
       </defs>
       <use xlink:href="#DejaVuSans-32"/>
       <use xlink:href="#DejaVuSans-30" transform="translate(63.623047 0)"/>
       <use xlink:href="#DejaVuSans-32" transform="translate(127.246094 0)"/>
       <use xlink:href="#DejaVuSans-34" transform="translate(190.869141 0)"/>
       <use xlink:href="#DejaVuSans-2d" transform="translate(254.492188 0)"/>
       <use xlink:href="#DejaVuSans-30" transform="translate(290.576172 0)"/>
       <use xlink:href="#DejaVuSans-34" transform="translate(354.199219 0)"/>
      </g>
     </g>
    </g>
    <g id="xtick_2">
     <g id="line2d_2">
      <g>
       <use xlink:href="#mee1b71634e" x="169.893661" y="256.32" style="stroke: #000000; stroke-width: 0.8"/>
      </g>
     </g>
     <g id="text_2">
      <!-- 2024-07 -->
      <g transform="translate(149.002255 270.918437) scale(0.1 -0.1)">
       <defs>
        <path id="DejaVuSans-37" d="M 525 4666 
L 3525 4666 
L 3525 4397 
L 1831 0 
L 1172 0 
L 2766 4134 
L 525 4134 
L 525 4666 
z
" transform="scale(0.015625)"/>
       </defs>
       <use xlink:href="#DejaVuSans-32"/>
       <use xlink:href="#DejaVuSans-30" transform="translate(63.623047 0)"/>
       <use xlink:href="#DejaVuSans-32" transform="translate(127.246094 0)"/>
       <use xlink:href="#DejaVuSans-34" transform="translate(190.869141 0)"/>
       <use xlink:href="#DejaVuSans-2d" transform="translate(254.492188 0)"/>
       <use xlink:href="#DejaVuSans-30" transform="translate(290.576172 0)"/>
       <use xlink:href="#DejaVuSans-37" transform="translate(354.199219 0)"/>
      </g>
     </g>
    </g>
    <g id="xtick_3">
     <g id="line2d_3">
      <g>
       <use xlink:href="#mee1b71634e" x="235.90369" y="256.32" style="stroke: #000000; stroke-width: 0.8"/>
      </g>
     </g>
     <g id="text_3">
      <!-- 2024-10 -->
      <g transform="translate(215.012284 270.918437) scale(0.1 -0.1)">
       <defs>
        <path id="DejaVuSans-31" d="M 794 531 
L 1825 531 
L 1825 4091 
L 703 3866 
L 703 4441 
L 1819 4666 
L 2450 4666 
L 2450 531 
L 3481 531 
L 3481 0 
L 794 0 
L 794 531 
z
" transform="scale(0.015625)"/>
       </defs>
       <use xlink:href="#DejaVuSans-32"/>
       <use xlink:href="#DejaVuSans-30" transform="translate(63.623047 0)"/>
       <use xlink:href="#DejaVuSans-32" transform="translate(127.246094 0)"/>
       <use xlink:href="#DejaVuSans-34" transform="translate(190.869141 0)"/>
       <use xlink:href="#DejaVuSans-2d" transform="translate(254.492188 0)"/>
       <use xlink:href="#DejaVuSans-31" transform="translate(290.576172 0)"/>
       <use xlink:href="#DejaVuSans-30" transform="translate(354.199219 0)"/>
      </g>
     </g>
    </g>
    <g id="xtick_4">
     <g id="line2d_4">
      <g>
       <use xlink:href="#mee1b71634e" x="301.91372" y="256.32" style="stroke: #000000; stroke-width: 0.8"/>
      </g>
     </g>
     <g id="text_4">
      <!-- 2025-01 -->
      <g transform="translate(281.022314 270.918437) scale(0.1 -0.1)">
       <defs>
        <path id="DejaVuSans-35" d="M 691 4666 
L 3169 4666 
L 3169 4134 
L 1269 4134 
L 1269 2991 
Q 1406 3038 1543 3061 
Q 1681 3084 1819 3084 
Q 2600 3084 3056 2656 
Q 3513 2228 3513 1497 
Q 3513 744 3044 326 
Q 2575 -91 1722 -91 
Q 1428 -91 1123 -41 
Q 819 9 494 109 
L 494 744 
Q 775 591 1075 516 
Q 1375 441 1709 441 
Q 2250 441 2565 725 
Q 2881 1009 2881 1497 
Q 2881 1984 2565 2268 
Q 2250 2553 1709 2553 
Q 1456 2553 1204 2497 
Q 953 2441 691 2322 
L 691 4666 
z
" transform="scale(0.015625)"/>
       </defs>
       <use xlink:href="#DejaVuSans-32"/>
       <use xlink:href="#DejaVuSans-30" transform="translate(63.623047 0)"/>
       <use xlink:href="#DejaVuSans-32" transform="translate(127.246094 0)"/>
       <use xlink:href="#DejaVuSans-35" transform="translate(190.869141 0)"/>
       <use xlink:href="#DejaVuSans-2d" transform="translate(254.492188 0)"/>
       <use xlink:href="#DejaVuSans-30" transform="translate(290.576172 0)"/>
       <use xlink:href="#DejaVuSans-31" transform="translate(354.199219 0)"/>
      </g>
     </g>
    </g>
    <g id="xtick_5">
     <g id="line2d_5">
      <g>
       <use xlink:href="#mee1b71634e" x="366.488749" y="256.32" style="stroke: #000000; stroke-width: 0.8"/>
      </g>
     </g>
     <g id="text_5">
      <!-- 2025-04 -->
      <g transform="translate(345.597343 270.918437) scale(0.1 -0.1)">
       <use xlink:href="#DejaVuSans-32"/>
       <use xlink:href="#DejaVuSans-30" transform="translate(63.623047 0)"/>
       <use xlink:href="#DejaVuSans-32" transform="translate(127.246094 0)"/>
       <use xlink:href="#DejaVuSans-35" transform="translate(190.869141 0)"/>
       <use xlink:href="#DejaVuSans-2d" transform="translate(254.492188 0)"/>
       <use xlink:href="#DejaVuSans-30" transform="translate(290.576172 0)"/>
       <use xlink:href="#DejaVuSans-34" transform="translate(354.199219 0)"/>
      </g>
     </g>
    </g>
    <g id="xtick_6">
     <g id="line2d_6">
      <g>
       <use xlink:href="#mee1b71634e" x="431.781278" y="256.32" style="stroke: #000000; stroke-width: 0.8"/>
      </g>
     </g>
     <g id="text_6">
      <!-- 2025-07 -->
      <g transform="translate(410.889872 270.918437) scale(0.1 -0.1)">
       <use xlink:href="#DejaVuSans-32"/>
       <use xlink:href="#DejaVuSans-30" transform="translate(63.623047 0)"/>
       <use xlink:href="#DejaVuSans-32" transform="translate(127.246094 0)"/>
       <use xlink:href="#DejaVuSans-35" transform="translate(190.869141 0)"/>
       <use xlink:href="#DejaVuSans-2d" transform="translate(254.492188 0)"/>
       <use xlink:href="#DejaVuSans-30" transform="translate(290.576172 0)"/>
       <use xlink:href="#DejaVuSans-37" transform="translate(354.199219 0)"/>
      </g>
     </g>
    </g>
    <g id="xtick_7">
     <g id="line2d_7">
      <g>
       <use xlink:href="#mee1b71634e" x="497.791308" y="256.32" style="stroke: #000000; stroke-width: 0.8"/>
      </g>
     </g>
     <g id="text_7">
      <!-- 2025-10 -->
      <g transform="translate(476.899901 270.918437) scale(0.1 -0.1)">
       <use xlink:href="#DejaVuSans-32"/>
       <use xlink:href="#DejaVuSans-30" transform="translate(63.623047 0)"/>
       <use xlink:href="#DejaVuSans-32" transform="translate(127.246094 0)"/>
       <use xlink:href="#DejaVuSans-35" transform="translate(190.869141 0)"/>
       <use xlink:href="#DejaVuSans-2d" transform="translate(254.492188 0)"/>
       <use xlink:href="#DejaVuSans-31" transform="translate(290.576172 0)"/>
       <use xlink:href="#DejaVuSans-30" transform="translate(354.199219 0)"/>
      </g>
     </g>
    </g>
    <g id="xtick_8">
     <g id="line2d_8">
      <g>
       <use xlink:href="#mee1b71634e" x="563.801337" y="256.32" style="stroke: #000000; stroke-width: 0.8"/>
      </g>
     </g>
     <g id="text_8">
      <!-- 2026-01 -->
      <g transform="translate(542.909931 270.918437) scale(0.1 -0.1)">
       <defs>
        <path id="DejaVuSans-36" d="M 2113 2584 
Q 1688 2584 1439 2293 
Q 1191 2003 1191 1497 
Q 1191 994 1439 701 
Q 1688 409 2113 409 
Q 2538 409 2786 701 
Q 3034 994 3034 1497 
Q 3034 2003 2786 2293 
Q 2538 2584 2113 2584 
z
M 3366 4563 
L 3366 3988 
Q 3128 4100 2886 4159 
Q 2644 4219 2406 4219 
Q 1781 4219 1451 3797 
Q 1122 3375 1075 2522 
Q 1259 2794 1537 2939 
Q 1816 3084 2150 3084 
Q 2853 3084 3261 2657 
Q 3669 2231 3669 1497 
Q 3669 778 3244 343 
Q 2819 -91 2113 -91 
Q 1303 -91 875 529 
Q 447 1150 447 2328 
Q 447 3434 972 4092 
Q 1497 4750 2381 4750 
Q 2619 4750 2861 4703 
Q 3103 4656 3366 4563 
z
" transform="scale(0.015625)"/>
       </defs>
       <use xlink:href="#DejaVuSans-32"/>
       <use xlink:href="#DejaVuSans-30" transform="translate(63.623047 0)"/>
       <use xlink:href="#DejaVuSans-32" transform="translate(127.246094 0)"/>
       <use xlink:href="#DejaVuSans-36" transform="translate(190.869141 0)"/>
       <use xlink:href="#DejaVuSans-2d" transform="translate(254.492188 0)"/>
       <use xlink:href="#DejaVuSans-30" transform="translate(290.576172 0)"/>
       <use xlink:href="#DejaVuSans-31" transform="translate(354.199219 0)"/>
      </g>
     </g>
    </g>
    <g id="xtick_9">
     <g id="line2d_9">
      <g>
       <use xlink:href="#mee1b71634e" x="628.376366" y="256.32" style="stroke: #000000; stroke-width: 0.8"/>
      </g>
     </g>
     <g id="text_9">
      <!-- 2026-04 -->
      <g transform="translate(607.48496 270.918437) scale(0.1 -0.1)">
       <use xlink:href="#DejaVuSans-32"/>
       <use xlink:href="#DejaVuSans-30" transform="translate(63.623047 0)"/>
       <use xlink:href="#DejaVuSans-32" transform="translate(127.246094 0)"/>
       <use xlink:href="#DejaVuSans-36" transform="translate(190.869141 0)"/>
       <use xlink:href="#DejaVuSans-2d" transform="translate(254.492188 0)"/>
       <use xlink:href="#DejaVuSans-30" transform="translate(290.576172 0)"/>
       <use xlink:href="#DejaVuSans-34" transform="translate(354.199219 0)"/>
      </g>
     </g>
    </g>
   </g>
   <g id="matplotlib.axis_2">
    <g id="ytick_1">
     <g id="line2d_10">
      <defs>
       <path id="m748920be6b" d="M 0 0 
L -3.5 0 
" style="stroke: #000000; stroke-width: 0.8"/>
      </defs>
      <g>
       <use xlink:href="#m748920be6b" x="90" y="256.32" style="stroke: #000000; stroke-width: 0.8"/>
      </g>
     </g>
     <g id="text_10">
      <!-- 0 -->
      <g transform="translate(76.6375 260.119219) scale(0.1 -0.1)">
       <use xlink:href="#DejaVuSans-30"/>
      </g>
     </g>
    </g>
    <g id="ytick_2">
     <g id="line2d_11">
      <g>
       <use xlink:href="#m748920be6b" x="90" y="211.968" style="stroke: #000000; stroke-width: 0.8"/>
      </g>
     </g>
     <g id="text_11">
      <!-- 20 -->
      <g transform="translate(70.275 215.767219) scale(0.1 -0.1)">
       <use xlink:href="#DejaVuSans-32"/>
       <use xlink:href="#DejaVuSans-30" transform="translate(63.623047 0)"/>
      </g>
     </g>
    </g>
    <g id="ytick_3">
     <g id="line2d_12">
      <g>
       <use xlink:href="#m748920be6b" x="90" y="167.616" style="stroke: #000000; stroke-width: 0.8"/>
      </g>
     </g>
     <g id="text_12">
      <!-- 40 -->
      <g transform="translate(70.275 171.415219) scale(0.1 -0.1)">
       <use xlink:href="#DejaVuSans-34"/>
       <use xlink:href="#DejaVuSans-30" transform="translate(63.623047 0)"/>
      </g>
     </g>
    </g>
    <g id="ytick_4">
     <g id="line2d_13">
      <g>
       <use xlink:href="#m748920be6b" x="90" y="123.264" style="stroke: #000000; stroke-width: 0.8"/>
      </g>
     </g>
     <g id="text_13">
      <!-- 60 -->
      <g transform="translate(70.275 127.063219) scale(0.1 -0.1)">
       <use xlink:href="#DejaVuSans-36"/>
       <use xlink:href="#DejaVuSans-30" transform="translate(63.623047 0)"/>
      </g>
     </g>
    </g>
    <g id="ytick_5">
     <g id="line2d_14">
      <g>
       <use xlink:href="#m748920be6b" x="90" y="78.912" style="stroke: #000000; stroke-width: 0.8"/>
      </g>
     </g>
     <g id="text_14">
      <!-- 80 -->
      <g transform="translate(70.275 82.711219) scale(0.1 -0.1)">
       <defs>
        <path id="DejaVuSans-38" d="M 2034 2216 
Q 1584 2216 1326 1975 
Q 1069 1734 1069 1313 
Q 1069 891 1326 650 
Q 1584 409 2034 409 
Q 2484 409 2743 651 
Q 3003 894 3003 1313 
Q 3003 1734 2745 1975 
Q 2488 2216 2034 2216 
z
M 1403 2484 
Q 997 2584 770 2862 
Q 544 3141 544 3541 
Q 544 4100 942 4425 
Q 1341 4750 2034 4750 
Q 2731 4750 3128 4425 
Q 3525 4100 3525 3541 
Q 3525 3141 3298 2862 
Q 3072 2584 2669 2484 
Q 3125 2378 3379 2068 
Q 3634 1759 3634 1313 
Q 3634 634 3220 271 
Q 2806 -91 2034 -91 
Q 1263 -91 848 271 
Q 434 634 434 1313 
Q 434 1759 690 2068 
Q 947 2378 1403 2484 
z
M 1172 3481 
Q 1172 3119 1398 2916 
Q 1625 2713 2034 2713 
Q 2441 2713 2670 2916 
Q 2900 3119 2900 3481 
Q 2900 3844 2670 4047 
Q 2441 4250 2034 4250 
Q 1625 4250 1398 4047 
Q 1172 3844 1172 3481 
z
" transform="scale(0.015625)"/>
       </defs>
       <use xlink:href="#DejaVuSans-38"/>
       <use xlink:href="#DejaVuSans-30" transform="translate(63.623047 0)"/>
      </g>
     </g>
    </g>
    <g id="ytick_6">
     <g id="line2d_15">
      <g>
       <use xlink:href="#m748920be6b" x="90" y="34.56" style="stroke: #000000; stroke-width: 0.8"/>
      </g>
     </g>
     <g id="text_15">
      <!-- 100 -->
      <g transform="translate(63.9125 38.359219) scale(0.1 -0.1)">
       <use xlink:href="#DejaVuSans-31"/>
       <use xlink:href="#DejaVuSans-30" transform="translate(63.623047 0)"/>
       <use xlink:href="#DejaVuSans-30" transform="translate(127.246094 0)"/>
      </g>
     </g>
    </g>
   </g>
   <g id="line2d_16">
    <path d="M 115.363636 116.960038 
L 116.798637 131.673141 
L 117.516137 110.07564 
L 119.668638 126.323468 
L 120.386139 129.964356 
L 121.103639 127.466707 
L 122.53864 129.191461 
L 124.691141 116.491405 
L 125.408641 125.512325 
L 126.843642 118.017561 
L 127.561142 129.714977 
L 129.713643 127.670191 
L 130.431143 141.984551 
L 131.866144 177.225619 
L 132.583644 169.345053 
L 135.453645 152.674466 
L 136.171146 165.171047 
L 136.888646 150.576586 
L 137.606146 148.156848 
L 140.476148 151.400997 
L 141.193648 151.116871 
L 141.911148 130.202259 
L 142.628649 118.285852 
L 144.78115 113.750535 
L 145.49865 112.537546 
L 146.21615 129.167771 
L 146.933651 125.814164 
L 147.651151 117.720064 
L 149.803652 102.032071 
L 150.521152 149.550172 
L 151.238652 126.135063 
L 151.956153 123.881051 
L 152.673653 119.969249 
L 154.826154 125.419254 
L 155.543654 124.297292 
L 156.261155 121.218683 
L 156.978655 119.016058 
L 157.696155 113.714438 
L 160.566157 110.26052 
L 161.283657 96.825163 
L 162.001157 94.205744 
L 162.718658 96.472704 
L 164.871159 94.796986 
L 165.588659 86.012778 
L 166.306159 92.518138 
L 167.02366 96.097998 
L 167.74116 104.354264 
L 172.046162 92.975384 
L 172.763662 132.589827 
L 174.916163 137.591287 
L 175.633663 137.188334 
L 176.351164 141.559591 
L 177.068664 143.362087 
L 177.786164 143.012716 
L 179.938665 143.30584 
L 180.656166 144.525908 
L 182.091166 147.198027 
L 182.808667 151.294407 
L 184.961168 132.655882 
L 185.678668 145.68854 
L 186.396168 152.678001 
L 187.113669 146.044377 
L 187.831169 145.217728 
L 189.98367 152.241383 
L 190.70117 146.1519 
L 191.41867 146.033617 
L 192.136171 133.069586 
L 192.853671 123.261626 
L 195.006172 148.025384 
L 195.723672 154.844051 
L 196.441173 143.520415 
L 197.158673 134.773011 
L 197.876173 131.499158 
L 200.028674 127.197164 
L 200.746175 155.022289 
L 201.463675 152.803904 
L 202.898676 141.590571 
L 205.051177 141.855128 
L 205.768677 138.956002 
L 206.486177 145.21196 
L 207.203678 142.352014 
L 207.921178 145.846296 
L 210.073679 137.725587 
L 210.791179 139.08586 
L 211.508679 139.512173 
L 212.22618 138.603285 
L 212.94368 139.839389 
L 215.096181 147.275901 
L 215.813681 139.718894 
L 216.531182 136.567327 
L 217.248682 133.936865 
L 217.966182 141.371223 
L 220.118683 134.057951 
L 220.836184 131.185645 
L 221.553684 137.380388 
L 222.271184 121.13636 
L 222.988685 121.791779 
L 225.141186 118.423685 
L 225.858686 120.845853 
L 226.576186 104.781444 
L 227.293687 98.071684 
L 228.011187 85.548322 
L 230.163688 80.053309 
L 230.881188 77.826051 
L 231.598688 74.972241 
L 232.316189 73.872944 
L 233.033689 105.215507 
L 235.18619 121.85404 
L 235.90369 126.23477 
L 237.338691 153.492289 
L 238.056191 164.861779 
L 240.208692 179.777671 
L 240.926193 161.216674 
L 241.643693 167.777756 
L 242.361193 153.355349 
L 243.078694 157.830675 
L 245.231195 141.534833 
L 245.948695 143.270073 
L 246.666195 136.740723 
L 247.383696 148.570984 
L 248.101196 144.738836 
L 250.253697 126.765591 
L 250.971197 133.293242 
L 251.688697 125.853836 
L 252.406198 121.268147 
L 253.123698 124.486303 
L 255.276199 129.285052 
L 255.993699 122.659615 
L 256.7112 131.824551 
L 257.4287 131.368744 
L 258.1462 130.66311 
L 260.298701 143.502465 
L 261.016202 124.781132 
L 261.733702 126.212002 
L 262.451202 131.120009 
L 263.168703 127.684796 
L 265.321204 122.623794 
L 266.038704 148.288291 
L 266.756204 163.058653 
L 267.473705 157.460446 
L 270.343706 151.515987 
L 271.061206 135.672659 
L 272.496207 136.168138 
L 273.213707 134.31945 
L 275.366208 119.23675 
L 276.083708 119.264566 
L 276.801209 110.37601 
L 277.518709 121.29937 
L 280.38871 117.05772 
L 281.106211 109.538551 
L 281.823711 99.555567 
L 282.541211 98.034175 
L 283.258712 104.729928 
L 285.411213 100.440343 
L 286.128713 101.806204 
L 286.846213 105.550253 
L 287.563714 108.519959 
L 288.281214 103.754433 
L 290.433715 109.107187 
L 291.151215 132.016721 
L 291.868715 145.164862 
L 293.303716 164.194769 
L 295.456217 147.952651 
L 296.173717 149.371245 
L 297.608718 153.06069 
L 298.326218 148.732468 
L 300.478719 159.107642 
L 301.19622 161.550042 
L 302.63122 148.298227 
L 303.348721 169.759746 
L 305.501222 183.326574 
L 306.218722 181.468502 
L 306.936222 187.560033 
L 307.653723 195.014662 
L 308.371223 197.860744 
L 310.523724 203.992664 
L 311.241224 193.102046 
L 311.958724 194.073247 
L 312.676225 187.652019 
L 313.393725 192.365323 
L 315.546226 182.034245 
L 316.263726 185.098983 
L 316.981227 169.122254 
L 317.698727 169.604179 
L 318.416227 175.889988 
L 320.568728 183.42687 
L 321.286229 158.115635 
L 322.003729 154.38676 
L 322.721229 146.874433 
L 323.43873 143.131838 
L 325.591231 153.674303 
L 326.308731 133.215205 
L 327.026231 126.514696 
L 327.743732 124.168385 
L 328.461232 130.511213 
L 330.613733 139.739918 
L 331.331233 147.027894 
L 332.048733 144.248979 
L 332.766234 149.058768 
L 333.483734 150.58922 
L 335.636235 138.036491 
L 336.353735 135.069889 
L 337.071236 132.860247 
L 337.788736 155.845737 
L 338.506236 152.657111 
L 340.658737 160.401797 
L 341.376238 157.042303 
L 342.811238 145.858189 
L 343.528739 129.696522 
L 345.68124 146.421567 
L 346.39874 142.226736 
L 347.11624 152.181076 
L 347.833741 151.521721 
L 348.551241 152.539819 
L 350.703742 153.505192 
L 351.421242 154.668915 
L 352.138742 138.430524 
L 352.856243 141.398726 
L 355.726244 139.032897 
L 357.878745 110.371524 
L 358.596245 109.736258 
L 360.748746 98.966237 
L 361.466247 92.499317 
L 362.183747 103.944551 
L 362.901247 97.928808 
L 363.618748 97.044393 
L 366.488749 135.499437 
L 367.206249 124.271344 
L 367.92375 125.378286 
L 368.64125 117.207543 
L 370.793751 145.668995 
L 371.511251 141.156835 
L 372.228751 142.953829 
L 373.663752 127.279477 
L 376.533753 110.753075 
L 377.251254 107.594847 
L 377.968754 101.088606 
L 380.838755 96.841497 
L 381.556256 90.337575 
L 382.273756 108.499118 
L 382.991256 111.699975 
L 383.708757 114.311941 
L 385.861258 111.894546 
L 386.578758 117.629081 
L 387.296258 112.870586 
L 388.731259 114.544139 
L 390.88376 109.988907 
L 391.60126 112.997771 
L 392.31876 108.533368 
L 393.036261 118.895857 
L 393.753761 138.997478 
L 395.906262 116.533034 
L 396.623762 131.369648 
L 397.341263 136.134024 
L 398.058763 128.663188 
L 398.776263 128.374938 
L 400.928764 127.019294 
L 401.646265 137.976936 
L 402.363765 133.463724 
L 403.081265 136.722847 
L 403.798766 131.238957 
L 405.951267 128.619568 
L 406.668767 136.012568 
L 407.386267 137.504808 
L 408.103768 135.577184 
L 408.821268 127.430685 
L 410.973769 135.170753 
L 411.691269 139.593827 
L 412.408769 131.185152 
L 413.12627 127.145903 
L 413.84377 114.654479 
L 415.996271 114.574505 
L 417.431272 134.046546 
L 418.148772 138.479494 
L 418.866272 153.303801 
L 421.018773 143.153719 
L 421.736274 146.449311 
L 422.453774 143.906878 
L 423.171274 143.042569 
L 423.888775 126.591453 
L 426.041276 137.362343 
L 426.758776 130.765671 
L 427.476276 121.490393 
L 428.193777 105.593571 
L 428.911277 100.805971 
L 431.063778 110.216756 
L 431.781278 106.507753 
L 432.498778 123.742363 
L 433.216279 123.279162 
L 433.933779 122.297499 
L 436.08628 123.662658 
L 436.80378 116.999513 
L 437.521281 112.600248 
L 438.238781 116.6942 
L 438.956281 133.631003 
L 441.108782 134.127594 
L 441.826283 126.936966 
L 442.543783 126.479458 
L 443.261283 134.137039 
L 443.978784 154.443411 
L 446.131285 129.592864 
L 446.848785 126.451605 
L 447.566285 118.650647 
L 448.283786 125.664896 
L 449.001286 128.858026 
L 451.153787 126.799744 
L 451.871287 120.049741 
L 452.588787 117.942889 
L 453.306288 124.283915 
L 456.176289 144.445091 
L 456.893789 153.859437 
L 457.61129 148.345513 
L 458.32879 141.371986 
L 459.04629 155.532386 
L 461.198791 141.247042 
L 461.916292 156.309875 
L 463.351292 143.183679 
L 466.221294 135.987889 
L 466.938794 144.000841 
L 467.656294 145.838966 
L 468.373795 143.846495 
L 469.091295 160.26855 
L 471.243796 160.551606 
L 471.961296 170.027123 
L 473.396297 183.936731 
L 474.113797 188.608225 
L 476.266298 189.358867 
L 476.983798 193.904297 
L 477.701299 176.927937 
L 478.418799 166.576394 
L 479.136299 163.386917 
L 481.2888 159.457256 
L 482.006301 160.486428 
L 482.723801 159.227721 
L 483.441301 155.918344 
L 484.158802 156.668044 
L 486.311303 157.06711 
L 487.028803 157.408387 
L 487.746303 158.045142 
L 488.463804 136.950752 
L 489.181304 154.892274 
L 491.333805 159.139415 
L 492.051305 169.311683 
L 492.768805 177.152293 
L 493.486306 178.623534 
L 494.203806 184.382326 
L 496.356307 172.352496 
L 497.073807 170.781913 
L 497.791308 143.548104 
L 499.226308 143.718191 
L 501.378809 130.747674 
L 502.09631 118.970225 
L 502.81381 126.175908 
L 503.53131 129.19999 
L 504.248811 123.890962 
L 506.401312 131.622416 
L 507.118812 131.388231 
L 507.836312 129.578058 
L 508.553813 107.951372 
L 509.271313 99.805987 
L 511.423814 99.427761 
L 512.141314 94.951014 
L 513.576315 93.929207 
L 514.293815 124.588598 
L 516.446316 115.038551 
L 517.163816 114.371447 
L 517.881317 109.572294 
L 519.316317 145.319559 
L 521.468818 138.007867 
L 522.186319 148.600237 
L 523.621319 149.435768 
L 524.33882 152.822062 
L 526.491321 149.161593 
L 527.208821 137.889407 
L 527.926321 141.602399 
L 528.643822 146.409679 
L 529.361322 141.418131 
L 531.513823 130.549391 
L 532.231323 138.183133 
L 532.948823 134.749032 
L 533.666324 115.582971 
L 534.383824 134.58959 
L 536.536325 133.129407 
L 537.253825 147.649849 
L 537.971326 129.479989 
L 538.688826 123.376579 
L 541.558827 135.102764 
L 542.276328 151.897697 
L 542.993828 138.416956 
L 543.711328 142.750572 
L 544.428829 135.374125 
L 546.58133 135.664606 
L 548.01633 154.004872 
L 548.733831 139.933457 
L 549.451331 138.427438 
L 552.321332 148.56944 
L 553.038832 161.804896 
L 553.756333 166.751314 
L 554.473833 157.411973 
L 556.626334 153.96592 
L 557.343834 140.962986 
L 558.061335 140.1283 
L 559.496335 147.912416 
L 561.648836 148.52234 
L 562.366337 149.813087 
L 563.083837 149.258468 
L 563.801337 149.350841 
L 564.518838 130.680115 
L 566.671339 166.830509 
L 567.388839 181.540919 
L 568.106339 191.416073 
L 568.82384 193.024705 
L 569.54134 198.11517 
L 571.693841 199.427035 
L 572.411341 198.649955 
L 573.128841 206.216688 
L 574.563842 195.424651 
L 576.716343 197.673534 
L 577.433843 191.247104 
L 578.151344 199.213613 
L 578.868844 200.336043 
L 579.586344 202.143127 
L 582.456346 181.858887 
L 583.173846 170.982155 
L 583.891346 166.325213 
L 584.608847 173.15003 
L 586.761348 174.38136 
L 587.478848 143.319889 
L 588.196348 138.032524 
L 588.913849 142.631864 
L 589.631349 153.520161 
L 591.78385 158.057238 
L 593.21885 169.388026 
L 593.936351 176.001073 
L 594.653851 189.966984 
L 596.806352 159.328391 
L 597.523852 159.422309 
L 598.241353 160.422563 
L 598.958853 169.232646 
L 599.676353 172.644151 
L 601.828854 156.522535 
L 602.546355 168.792085 
L 603.263855 171.284527 
L 604.698856 186.546162 
L 606.851357 191.954476 
L 608.286357 198.200441 
L 609.003858 184.900811 
L 609.721358 196.759173 
L 611.873859 204.130179 
L 612.591359 192.840803 
L 613.308859 199.994548 
L 614.02636 200.518853 
L 614.74386 207.006993 
L 616.896361 179.763127 
L 617.613861 174.955476 
L 618.331362 176.336415 
L 619.048862 197.353272 
L 619.766362 203.291994 
L 621.918863 212.91877 
L 622.636364 194.989742 
L 622.636364 194.989742 
" clip-path="url(#p9508c86da9)" style="fill: none; stroke: #1f77b4; stroke-width: 1.5; stroke-linecap: square"/>
   </g>
   <g id="line2d_17">
    <path d="M 90 101.088 
L 648 101.088 
" clip-path="url(#p9508c86da9)" style="fill: none; stroke-dasharray: 5.55,2.4; stroke-dashoffset: 0; stroke: #ff0000; stroke-opacity: 0.7; stroke-width: 1.5"/>
   </g>
   <g id="line2d_18">
    <path d="M 90 189.792 
L 648 189.792 
" clip-path="url(#p9508c86da9)" style="fill: none; stroke-dasharray: 5.55,2.4; stroke-dashoffset: 0; stroke: #008000; stroke-opacity: 0.7; stroke-width: 1.5"/>
   </g>
   <g id="patch_3">
    <path d="M 90 256.32 
L 90 34.56 
" style="fill: none; stroke: #000000; stroke-width: 0.8; stroke-linejoin: miter; stroke-linecap: square"/>
   </g>
   <g id="patch_4">
    <path d="M 648 256.32 
L 648 34.56 
" style="fill: none; stroke: #000000; stroke-width: 0.8; stroke-linejoin: miter; stroke-linecap: square"/>
   </g>
   <g id="patch_5">
    <path d="M 90 256.32 
L 648 256.32 
" style="fill: none; stroke: #000000; stroke-width: 0.8; stroke-linejoin: miter; stroke-linecap: square"/>
   </g>
   <g id="patch_6">
    <path d="M 90 34.56 
L 648 34.56 
" style="fill: none; stroke: #000000; stroke-width: 0.8; stroke-linejoin: miter; stroke-linecap: square"/>
   </g>
   <g id="text_16">
    <!-- RSI for HDFCBANK.NS -->
    <g transform="translate(303.56625 28.56) scale(0.12 -0.12)">
     <defs>
      <path id="DejaVuSans-52" d="M 2841 2188 
Q 3044 2119 3236 1894 
Q 3428 1669 3622 1275 
L 4263 0 
L 3584 0 
L 2988 1197 
Q 2756 1666 2539 1819 
Q 2322 1972 1947 1972 
L 1259 1972 
L 1259 0 
L 628 0 
L 628 4666 
L 2053 4666 
Q 2853 4666 3247 4331 
Q 3641 3997 3641 3322 
Q 3641 2881 3436 2590 
Q 3231 2300 2841 2188 
z
M 1259 4147 
L 1259 2491 
L 2053 2491 
Q 2509 2491 2742 2702 
Q 2975 2913 2975 3322 
Q 2975 3731 2742 3939 
Q 2509 4147 2053 4147 
L 1259 4147 
z
" transform="scale(0.015625)"/>
      <path id="DejaVuSans-53" d="M 3425 4513 
L 3425 3897 
Q 3066 4069 2747 4153 
Q 2428 4238 2131 4238 
Q 1616 4238 1336 4038 
Q 1056 3838 1056 3469 
Q 1056 3159 1242 3001 
Q 1428 2844 1947 2747 
L 2328 2669 
Q 3034 2534 3370 2195 
Q 3706 1856 3706 1288 
Q 3706 609 3251 259 
Q 2797 -91 1919 -91 
Q 1588 -91 1214 -16 
Q 841 59 441 206 
L 441 856 
Q 825 641 1194 531 
Q 1563 422 1919 422 
Q 2459 422 2753 634 
Q 3047 847 3047 1241 
Q 3047 1584 2836 1778 
Q 2625 1972 2144 2069 
L 1759 2144 
Q 1053 2284 737 2584 
Q 422 2884 422 3419 
Q 422 4038 858 4394 
Q 1294 4750 2059 4750 
Q 2388 4750 2728 4690 
Q 3069 4631 3425 4513 
z
" transform="scale(0.015625)"/>
      <path id="DejaVuSans-49" d="M 628 4666 
L 1259 4666 
L 1259 0 
L 628 0 
L 628 4666 
z
" transform="scale(0.015625)"/>
      <path id="DejaVuSans-20" transform="scale(0.015625)"/>
      <path id="DejaVuSans-66" d="M 2375 4863 
L 2375 4384 
L 1825 4384 
Q 1516 4384 1395 4259 
Q 1275 4134 1275 3809 
L 1275 3500 
L 2222 3500 
L 2222 3053 
L 1275 3053 
L 1275 0 
L 697 0 
L 697 3053 
L 147 3053 
L 147 3500 
L 697 3500 
L 697 3744 
Q 697 4328 969 4595 
Q 1241 4863 1831 4863 
L 2375 4863 
z
" transform="scale(0.015625)"/>
      <path id="DejaVuSans-6f" d="M 1959 3097 
Q 1497 3097 1228 2736 
Q 959 2375 959 1747 
Q 959 1119 1226 758 
Q 1494 397 1959 397 
Q 2419 397 2687 759 
Q 2956 1122 2956 1747 
Q 2956 2369 2687 2733 
Q 2419 3097 1959 3097 
z
M 1959 3584 
Q 2709 3584 3137 3096 
Q 3566 2609 3566 1747 
Q 3566 888 3137 398 
Q 2709 -91 1959 -91 
Q 1206 -91 779 398 
Q 353 888 353 1747 
Q 353 2609 779 3096 
Q 1206 3584 1959 3584 
z
" transform="scale(0.015625)"/>
      <path id="DejaVuSans-72" d="M 2631 2963 
Q 2534 3019 2420 3045 
Q 2306 3072 2169 3072 
Q 1681 3072 1420 2755 
Q 1159 2438 1159 1844 
L 1159 0 
L 581 0 
L 581 3500 
L 1159 3500 
L 1159 2956 
Q 1341 3275 1631 3429 
Q 1922 3584 2338 3584 
Q 2397 3584 2469 3576 
Q 2541 3569 2628 3553 
L 2631 2963 
z
" transform="scale(0.015625)"/>
      <path id="DejaVuSans-48" d="M 628 4666 
L 1259 4666 
L 1259 2753 
L 3553 2753 
L 3553 4666 
L 4184 4666 
L 4184 0 
L 3553 0 
L 3553 2222 
L 1259 2222 
L 1259 0 
L 628 0 
L 628 4666 
z
" transform="scale(0.015625)"/>
      <path id="DejaVuSans-44" d="M 1259 4147 
L 1259 519 
L 2022 519 
Q 2988 519 3436 956 
Q 3884 1394 3884 2338 
Q 3884 3275 3436 3711 
Q 2988 4147 2022 4147 
L 1259 4147 
z
M 628 4666 
L 1925 4666 
Q 3281 4666 3915 4102 
Q 4550 3538 4550 2338 
Q 4550 1131 3912 565 
Q 3275 0 1925 0 
L 628 0 
L 628 4666 
z
" transform="scale(0.015625)"/>
      <path id="DejaVuSans-46" d="M 628 4666 
L 3309 4666 
L 3309 4134 
L 1259 4134 
L 1259 2759 
L 3109 2759 
L 3109 2228 
L 1259 2228 
L 1259 0 
L 628 0 
L 628 4666 
z
" transform="scale(0.015625)"/>
      <path id="DejaVuSans-43" d="M 4122 4306 
L 4122 3641 
Q 3803 3938 3442 4084 
Q 3081 4231 2675 4231 
Q 1875 4231 1450 3742 
Q 1025 3253 1025 2328 
Q 1025 1406 1450 917 
Q 1875 428 2675 428 
Q 3081 428 3442 575 
Q 3803 722 4122 1019 
L 4122 359 
Q 3791 134 3420 21 
Q 3050 -91 2638 -91 
Q 1578 -91 968 557 
Q 359 1206 359 2328 
Q 359 3453 968 4101 
Q 1578 4750 2638 4750 
Q 3056 4750 3426 4639 
Q 3797 4528 4122 4306 
z
" transform="scale(0.015625)"/>
      <path id="DejaVuSans-42" d="M 1259 2228 
L 1259 519 
L 2272 519 
Q 2781 519 3026 730 
Q 3272 941 3272 1375 
Q 3272 1813 3026 2020 
Q 2781 2228 2272 2228 
L 1259 2228 
z
M 1259 4147 
L 1259 2741 
L 2194 2741 
Q 2656 2741 2882 2914 
Q 3109 3088 3109 3444 
Q 3109 3797 2882 3972 
Q 2656 4147 2194 4147 
L 1259 4147 
z
M 628 4666 
L 2241 4666 
Q 2963 4666 3353 4366 
Q 3744 4066 3744 3513 
Q 3744 3084 3544 2831 
Q 3344 2578 2956 2516 
Q 3422 2416 3680 2098 
Q 3938 1781 3938 1306 
Q 3938 681 3513 340 
Q 3088 0 2303 0 
L 628 0 
L 628 4666 
z
" transform="scale(0.015625)"/>
      <path id="DejaVuSans-41" d="M 2188 4044 
L 1331 1722 
L 3047 1722 
L 2188 4044 
z
M 1831 4666 
L 2547 4666 
L 4325 0 
L 3669 0 
L 3244 1197 
L 1141 1197 
L 716 0 
L 50 0 
L 1831 4666 
z
" transform="scale(0.015625)"/>
      <path id="DejaVuSans-4e" d="M 628 4666 
L 1478 4666 
L 3547 763 
L 3547 4666 
L 4159 4666 
L 4159 0 
L 3309 0 
L 1241 3903 
L 1241 0 
L 628 0 
L 628 4666 
z
" transform="scale(0.015625)"/>
      <path id="DejaVuSans-4b" d="M 628 4666 
L 1259 4666 
L 1259 2694 
L 3353 4666 
L 4166 4666 
L 1850 2491 
L 4331 0 
L 3500 0 
L 1259 2247 
L 1259 0 
L 628 0 
L 628 4666 
z
" transform="scale(0.015625)"/>
      <path id="DejaVuSans-2e" d="M 684 794 
L 1344 794 
L 1344 0 
L 684 0 
L 684 794 
z
" transform="scale(0.015625)"/>
     </defs>
     <use xlink:href="#DejaVuSans-52"/>
     <use xlink:href="#DejaVuSans-53" transform="translate(69.482422 0)"/>
     <use xlink:href="#DejaVuSans-49" transform="translate(132.958984 0)"/>
     <use xlink:href="#DejaVuSans-20" transform="translate(162.451172 0)"/>
     <use xlink:href="#DejaVuSans-66" transform="translate(194.238281 0)"/>
     <use xlink:href="#DejaVuSans-6f" transform="translate(229.443359 0)"/>
     <use xlink:href="#DejaVuSans-72" transform="translate(290.625 0)"/>
     <use xlink:href="#DejaVuSans-20" transform="translate(331.738281 0)"/>
     <use xlink:href="#DejaVuSans-48" transform="translate(363.525391 0)"/>
     <use xlink:href="#DejaVuSans-44" transform="translate(438.720703 0)"/>
     <use xlink:href="#DejaVuSans-46" transform="translate(515.722656 0)"/>
     <use xlink:href="#DejaVuSans-43" transform="translate(573.242188 0)"/>
     <use xlink:href="#DejaVuSans-42" transform="translate(643.066406 0)"/>
     <use xlink:href="#DejaVuSans-41" transform="translate(711.669922 0)"/>
     <use xlink:href="#DejaVuSans-4e" transform="translate(780.078125 0)"/>
     <use xlink:href="#DejaVuSans-4b" transform="translate(854.882812 0)"/>
     <use xlink:href="#DejaVuSans-2e" transform="translate(920.458984 0)"/>
     <use xlink:href="#DejaVuSans-4e" transform="translate(952.246094 0)"/>
     <use xlink:href="#DejaVuSans-53" transform="translate(1027.050781 0)"/>
    </g>
   </g>
  </g>
 </g>
 <defs>
  <clipPath id="p9508c86da9">
   <rect x="90" y="34.56" width="558" height="221.76"/>
  </clipPath>
 </defs>
</svg>
