<?xml version="1.0" encoding="utf-8" standalone="no"?>
<!DOCTYPE svg PUBLIC "-//W3C//DTD SVG 1.1//EN"
  "http://www.w3.org/Graphics/SVG/1.1/DTD/svg11.dtd">
<svg xmlns:xlink="http://www.w3.org/1999/xlink" width="720pt" height="288pt" viewBox="0 0 720 288" xmlns="http://www.w3.org/2000/svg" version="1.1">
 <metadata>
  <rdf:RDF xmlns:dc="http://purl.org/dc/elements/1.1/" xmlns:cc="http://creativecommons.org/ns#" xmlns:rdf="http://www.w3.org/1999/02/22-rdf-syntax-ns#">
   <cc:Work>
    <dc:type rdf:resource="http://purl.org/dc/dcmitype/StillImage"/>
    <dc:date>2026-03-25T15:56:34.116951</dc:date>
    <dc:format>image/svg+xml</dc:format>
    <dc:creator>
     <cc:Agent>
      <dc:title>Matplotlib v3.10.8, https://matplotlib.org/</dc:title>
     </cc:Agent>
    </dc:creator>
   </cc:Work>
  </rdf:RDF>
 </metadata>
 <defs>
  <style type="text/css">*{stroke-linejoin: round; stroke-linecap: butt}</style>
 </defs>
 <g id="figure_1">
  <g id="patch_1">
   <path d="M 0 288 
L 720 288 
L 720 0 
L 0 0 
z
" style="fill: #ffffff"/>
  </g>
  <g id="axes_1">
   <g id="patch_2">
    <path d="M 90 256.32 
L 648 256.32 
L 648 34.56 
L 90 34.56 
z
" style="fill: #ffffff"/>
   </g>
   <g id="FillBetweenPolyCollection_1"/>
   <g id="matplotlib.axis_1">
    <g id="xtick_1">
     <g id="line2d_1">
      <defs>
       <path id="m822b9a81b3" d="M 0 0 
L 0 3.5 
" style="stroke: #000000; stroke-width: 0.8"/>
      </defs>
      <g>
       <use xlink:href="#m822b9a81b3" x="104.601132" y="256.32" style="stroke: #000000; stroke-width: 0.8"/>
      </g>
     </g>
     <g id="text_1">
      <!-- 2024-04 -->
      <g transform="translate(83.709725 270.918437) scale(0.1 -0.1)">
       <defs>
        <path id="DejaVuSans-32" d="M 1228 531 
L 3431 531 
L 3431 0 
L 469 0 
L 469 531 
Q 828 903 1448 1529 
Q 2069 2156 2228 2338 
Q 2531 2678 2651 2914 
Q 2772 3150 2772 3378 
Q 2772 3750 2511 3984 
Q 2250 4219 1831 4219 
Q 1534 4219 1204 4116 
Q 875 4013 500 3803 
L 500 4441 
Q 881 4594 1212 4672 
Q 1544 4750 1819 4750 
Q 2544 4750 2975 4387 
Q 3406 4025 3406 3419 
Q 3406 3131 3298 2873 
Q 3191 2616 2906 2266 
Q 2828 2175 2409 1742 
Q 1991 1309 1228 531 
z
" transform="scale(0.015625)"/>
        <path id="DejaVuSans-30" d="M 2034 4250 
Q 1547 4250 1301 3770 
Q 1056 3291 1056 2328 
Q 1056 1369 1301 889 
Q 1547 409 2034 409 
Q 2525 409 2770 889 
Q 3016 1369 3016 2328 
Q 3016 3291 2770 3770 
Q 2525 4250 2034 4250 
z
M 2034 4750 
Q 2819 4750 3233 4129 
Q 3647 3509 3647 2328 
Q 3647 1150 3233 529 
Q 2819 -91 2034 -91 
Q 1250 -91 836 529 
Q 422 1150 422 2328 
Q 422 3509 836 4129 
Q 1250 4750 2034 4750 
z
" transform="scale(0.015625)"/>
        <path id="DejaVuSans-34" d="M 2419 4116 
L 825 1625 
L 2419 1625 
L 2419 4116 
z
M 2253 4666 
L 3047 4666 
L 3047 1625 
L 3713 1625 
L 3713 1100 
L 3047 1100 
L 3047 0 
L 2419 0 
L 2419 1100 
L 313 1100 
L 313 1709 
L 2253 4666 
z
" transform="scale(0.015625)"/>
        <path id="DejaVuSans-2d" d="M 313 2009 
L 1997 2009 
L 1997 1497 
L 313 1497 
L 313 2009 
z
" transform="scale(0.015625)"/>
       </defs>
       <use xlink:href="#DejaVuSans-32"/>
       <use xlink:href="#DejaVuSans-30" transform="translate(63.623047 0)"/>
       <use xlink:href="#DejaVuSans-32" transform="translate(127.246094 0)"/>
       <use xlink:href="#DejaVuSans-34" transform="translate(190.869141 0)"/>
       <use xlink:href="#DejaVuSans-2d" transform="translate(254.492188 0)"/>
       <use xlink:href="#DejaVuSans-30" transform="translate(290.576172 0)"/>
       <use xlink:href="#DejaVuSans-34" transform="translate(354.199219 0)"/>
      </g>
     </g>
    </g>
    <g id="xtick_2">
     <g id="line2d_2">
      <g>
       <use xlink:href="#m822b9a81b3" x="169.893661" y="256.32" style="stroke: #000000; stroke-width: 0.8"/>
      </g>
     </g>
     <g id="text_2">
      <!-- 2024-07 -->
      <g transform="translate(149.002255 270.918437) scale(0.1 -0.1)">
       <defs>
        <path id="DejaVuSans-37" d="M 525 4666 
L 3525 4666 
L 3525 4397 
L 1831 0 
L 1172 0 
L 2766 4134 
L 525 4134 
L 525 4666 
z
" transform="scale(0.015625)"/>
       </defs>
       <use xlink:href="#DejaVuSans-32"/>
       <use xlink:href="#DejaVuSans-30" transform="translate(63.623047 0)"/>
       <use xlink:href="#DejaVuSans-32" transform="translate(127.246094 0)"/>
       <use xlink:href="#DejaVuSans-34" transform="translate(190.869141 0)"/>
       <use xlink:href="#DejaVuSans-2d" transform="translate(254.492188 0)"/>
       <use xlink:href="#DejaVuSans-30" transform="translate(290.576172 0)"/>
       <use xlink:href="#DejaVuSans-37" transform="translate(354.199219 0)"/>
      </g>
     </g>
    </g>
    <g id="xtick_3">
     <g id="line2d_3">
      <g>
       <use xlink:href="#m822b9a81b3" x="235.90369" y="256.32" style="stroke: #000000; stroke-width: 0.8"/>
      </g>
     </g>
     <g id="text_3">
      <!-- 2024-10 -->
      <g transform="translate(215.012284 270.918437) scale(0.1 -0.1)">
       <defs>
        <path id="DejaVuSans-31" d="M 794 531 
L 1825 531 
L 1825 4091 
L 703 3866 
L 703 4441 
L 1819 4666 
L 2450 4666 
L 2450 531 
L 3481 531 
L 3481 0 
L 794 0 
L 794 531 
z
" transform="scale(0.015625)"/>
       </defs>
       <use xlink:href="#DejaVuSans-32"/>
       <use xlink:href="#DejaVuSans-30" transform="translate(63.623047 0)"/>
       <use xlink:href="#DejaVuSans-32" transform="translate(127.246094 0)"/>
       <use xlink:href="#DejaVuSans-34" transform="translate(190.869141 0)"/>
       <use xlink:href="#DejaVuSans-2d" transform="translate(254.492188 0)"/>
       <use xlink:href="#DejaVuSans-31" transform="translate(290.576172 0)"/>
       <use xlink:href="#DejaVuSans-30" transform="translate(354.199219 0)"/>
      </g>
     </g>
    </g>
    <g id="xtick_4">
     <g id="line2d_4">
      <g>
       <use xlink:href="#m822b9a81b3" x="301.91372" y="256.32" style="stroke: #000000; stroke-width: 0.8"/>
      </g>
     </g>
     <g id="text_4">
      <!-- 2025-01 -->
      <g transform="translate(281.022314 270.918437) scale(0.1 -0.1)">
       <defs>
        <path id="DejaVuSans-35" d="M 691 4666 
L 3169 4666 
L 3169 4134 
L 1269 4134 
L 1269 2991 
Q 1406 3038 1543 3061 
Q 1681 3084 1819 3084 
Q 2600 3084 3056 2656 
Q 3513 2228 3513 1497 
Q 3513 744 3044 326 
Q 2575 -91 1722 -91 
Q 1428 -91 1123 -41 
Q 819 9 494 109 
L 494 744 
Q 775 591 1075 516 
Q 1375 441 1709 441 
Q 2250 441 2565 725 
Q 2881 1009 2881 1497 
Q 2881 1984 2565 2268 
Q 2250 2553 1709 2553 
Q 1456 2553 1204 2497 
Q 953 2441 691 2322 
L 691 4666 
z
" transform="scale(0.015625)"/>
       </defs>
       <use xlink:href="#DejaVuSans-32"/>
       <use xlink:href="#DejaVuSans-30" transform="translate(63.623047 0)"/>
       <use xlink:href="#DejaVuSans-32" transform="translate(127.246094 0)"/>
       <use xlink:href="#DejaVuSans-35" transform="translate(190.869141 0)"/>
       <use xlink:href="#DejaVuSans-2d" transform="translate(254.492188 0)"/>
       <use xlink:href="#DejaVuSans-30" transform="translate(290.576172 0)"/>
       <use xlink:href="#DejaVuSans-31" transform="translate(354.199219 0)"/>
      </g>
     </g>
    </g>
    <g id="xtick_5">
     <g id="line2d_5">
      <g>
       <use xlink:href="#m822b9a81b3" x="366.488749" y="256.32" style="stroke: #000000; stroke-width: 0.8"/>
      </g>
     </g>
     <g id="text_5">
      <!-- 2025-04 -->
      <g transform="translate(345.597343 270.918437) scale(0.1 -0.1)">
       <use xlink:href="#DejaVuSans-32"/>
       <use xlink:href="#DejaVuSans-30" transform="translate(63.623047 0)"/>
       <use xlink:href="#DejaVuSans-32" transform="translate(127.246094 0)"/>
       <use xlink:href="#DejaVuSans-35" transform="translate(190.869141 0)"/>
       <use xlink:href="#DejaVuSans-2d" transform="translate(254.492188 0)"/>
       <use xlink:href="#DejaVuSans-30" transform="translate(290.576172 0)"/>
       <use xlink:href="#DejaVuSans-34" transform="translate(354.199219 0)"/>
      </g>
     </g>
    </g>
    <g id="xtick_6">
     <g id="line2d_6">
      <g>
       <use xlink:href="#m822b9a81b3" x="431.781278" y="256.32" style="stroke: #000000; stroke-width: 0.8"/>
      </g>
     </g>
     <g id="text_6">
      <!-- 2025-07 -->
      <g transform="translate(410.889872 270.918437) scale(0.1 -0.1)">
       <use xlink:href="#DejaVuSans-32"/>
       <use xlink:href="#DejaVuSans-30" transform="translate(63.623047 0)"/>
       <use xlink:href="#DejaVuSans-32" transform="translate(127.246094 0)"/>
       <use xlink:href="#DejaVuSans-35" transform="translate(190.869141 0)"/>
       <use xlink:href="#DejaVuSans-2d" transform="translate(254.492188 0)"/>
       <use xlink:href="#DejaVuSans-30" transform="translate(290.576172 0)"/>
       <use xlink:href="#DejaVuSans-37" transform="translate(354.199219 0)"/>
      </g>
     </g>
    </g>
    <g id="xtick_7">
     <g id="line2d_7">
      <g>
       <use xlink:href="#m822b9a81b3" x="497.791308" y="256.32" style="stroke: #000000; stroke-width: 0.8"/>
      </g>
     </g>
     <g id="text_7">
      <!-- 2025-10 -->
      <g transform="translate(476.899901 270.918437) scale(0.1 -0.1)">
       <use xlink:href="#DejaVuSans-32"/>
       <use xlink:href="#DejaVuSans-30" transform="translate(63.623047 0)"/>
       <use xlink:href="#DejaVuSans-32" transform="translate(127.246094 0)"/>
       <use xlink:href="#DejaVuSans-35" transform="translate(190.869141 0)"/>
       <use xlink:href="#DejaVuSans-2d" transform="translate(254.492188 0)"/>
       <use xlink:href="#DejaVuSans-31" transform="translate(290.576172 0)"/>
       <use xlink:href="#DejaVuSans-30" transform="translate(354.199219 0)"/>
      </g>
     </g>
    </g>
    <g id="xtick_8">
     <g id="line2d_8">
      <g>
       <use xlink:href="#m822b9a81b3" x="563.801337" y="256.32" style="stroke: #000000; stroke-width: 0.8"/>
      </g>
     </g>
     <g id="text_8">
      <!-- 2026-01 -->
      <g transform="translate(542.909931 270.918437) scale(0.1 -0.1)">
       <defs>
        <path id="DejaVuSans-36" d="M 2113 2584 
Q 1688 2584 1439 2293 
Q 1191 2003 1191 1497 
Q 1191 994 1439 701 
Q 1688 409 2113 409 
Q 2538 409 2786 701 
Q 3034 994 3034 1497 
Q 3034 2003 2786 2293 
Q 2538 2584 2113 2584 
z
M 3366 4563 
L 3366 3988 
Q 3128 4100 2886 4159 
Q 2644 4219 2406 4219 
Q 1781 4219 1451 3797 
Q 1122 3375 1075 2522 
Q 1259 2794 1537 2939 
Q 1816 3084 2150 3084 
Q 2853 3084 3261 2657 
Q 3669 2231 3669 1497 
Q 3669 778 3244 343 
Q 2819 -91 2113 -91 
Q 1303 -91 875 529 
Q 447 1150 447 2328 
Q 447 3434 972 4092 
Q 1497 4750 2381 4750 
Q 2619 4750 2861 4703 
Q 3103 4656 3366 4563 
z
" transform="scale(0.015625)"/>
       </defs>
       <use xlink:href="#DejaVuSans-32"/>
       <use xlink:href="#DejaVuSans-30" transform="translate(63.623047 0)"/>
       <use xlink:href="#DejaVuSans-32" transform="translate(127.246094 0)"/>
       <use xlink:href="#DejaVuSans-36" transform="translate(190.869141 0)"/>
       <use xlink:href="#DejaVuSans-2d" transform="translate(254.492188 0)"/>
       <use xlink:href="#DejaVuSans-30" transform="translate(290.576172 0)"/>
       <use xlink:href="#DejaVuSans-31" transform="translate(354.199219 0)"/>
      </g>
     </g>
    </g>
    <g id="xtick_9">
     <g id="line2d_9">
      <g>
       <use xlink:href="#m822b9a81b3" x="628.376366" y="256.32" style="stroke: #000000; stroke-width: 0.8"/>
      </g>
     </g>
     <g id="text_9">
      <!-- 2026-04 -->
      <g transform="translate(607.48496 270.918437) scale(0.1 -0.1)">
       <use xlink:href="#DejaVuSans-32"/>
       <use xlink:href="#DejaVuSans-30" transform="translate(63.623047 0)"/>
       <use xlink:href="#DejaVuSans-32" transform="translate(127.246094 0)"/>
       <use xlink:href="#DejaVuSans-36" transform="translate(190.869141 0)"/>
       <use xlink:href="#DejaVuSans-2d" transform="translate(254.492188 0)"/>
       <use xlink:href="#DejaVuSans-30" transform="translate(290.576172 0)"/>
       <use xlink:href="#DejaVuSans-34" transform="translate(354.199219 0)"/>
      </g>
     </g>
    </g>
   </g>
   <g id="matplotlib.axis_2">
    <g id="ytick_1">
     <g id="line2d_10">
      <defs>
       <path id="m843096179e" d="M 0 0 
L -3.5 0 
" style="stroke: #000000; stroke-width: 0.8"/>
      </defs>
      <g>
       <use xlink:href="#m843096179e" x="90" y="256.32" style="stroke: #000000; stroke-width: 0.8"/>
      </g>
     </g>
     <g id="text_10">
      <!-- 0 -->
      <g transform="translate(76.6375 260.119219) scale(0.1 -0.1)">
       <use xlink:href="#DejaVuSans-30"/>
      </g>
     </g>
    </g>
    <g id="ytick_2">
     <g id="line2d_11">
      <g>
       <use xlink:href="#m843096179e" x="90" y="211.968" style="stroke: #000000; stroke-width: 0.8"/>
      </g>
     </g>
     <g id="text_11">
      <!-- 20 -->
      <g transform="translate(70.275 215.767219) scale(0.1 -0.1)">
       <use xlink:href="#DejaVuSans-32"/>
       <use xlink:href="#DejaVuSans-30" transform="translate(63.623047 0)"/>
      </g>
     </g>
    </g>
    <g id="ytick_3">
     <g id="line2d_12">
      <g>
       <use xlink:href="#m843096179e" x="90" y="167.616" style="stroke: #000000; stroke-width: 0.8"/>
      </g>
     </g>
     <g id="text_12">
      <!-- 40 -->
      <g transform="translate(70.275 171.415219) scale(0.1 -0.1)">
       <use xlink:href="#DejaVuSans-34"/>
       <use xlink:href="#DejaVuSans-30" transform="translate(63.623047 0)"/>
      </g>
     </g>
    </g>
    <g id="ytick_4">
     <g id="line2d_13">
      <g>
       <use xlink:href="#m843096179e" x="90" y="123.264" style="stroke: #000000; stroke-width: 0.8"/>
      </g>
     </g>
     <g id="text_13">
      <!-- 60 -->
      <g transform="translate(70.275 127.063219) scale(0.1 -0.1)">
       <use xlink:href="#DejaVuSans-36"/>
       <use xlink:href="#DejaVuSans-30" transform="translate(63.623047 0)"/>
      </g>
     </g>
    </g>
    <g id="ytick_5">
     <g id="line2d_14">
      <g>
       <use xlink:href="#m843096179e" x="90" y="78.912" style="stroke: #000000; stroke-width: 0.8"/>
      </g>
     </g>
     <g id="text_14">
      <!-- 80 -->
      <g transform="translate(70.275 82.711219) scale(0.1 -0.1)">
       <defs>
        <path id="DejaVuSans-38" d="M 2034 2216 
Q 1584 2216 1326 1975 
Q 1069 1734 1069 1313 
Q 1069 891 1326 650 
Q 1584 409 2034 409 
Q 2484 409 2743 651 
Q 3003 894 3003 1313 
Q 3003 1734 2745 1975 
Q 2488 2216 2034 2216 
z
M 1403 2484 
Q 997 2584 770 2862 
Q 544 3141 544 3541 
Q 544 4100 942 4425 
Q 1341 4750 2034 4750 
Q 2731 4750 3128 4425 
Q 3525 4100 3525 3541 
Q 3525 3141 3298 2862 
Q 3072 2584 2669 2484 
Q 3125 2378 3379 2068 
Q 3634 1759 3634 1313 
Q 3634 634 3220 271 
Q 2806 -91 2034 -91 
Q 1263 -91 848 271 
Q 434 634 434 1313 
Q 434 1759 690 2068 
Q 947 2378 1403 2484 
z
M 1172 3481 
Q 1172 3119 1398 2916 
Q 1625 2713 2034 2713 
Q 2441 2713 2670 2916 
Q 2900 3119 2900 3481 
Q 2900 3844 2670 4047 
Q 2441 4250 2034 4250 
Q 1625 4250 1398 4047 
Q 1172 3844 1172 3481 
z
" transform="scale(0.015625)"/>
       </defs>
       <use xlink:href="#DejaVuSans-38"/>
       <use xlink:href="#DejaVuSans-30" transform="translate(63.623047 0)"/>
      </g>
     </g>
    </g>
    <g id="ytick_6">
     <g id="line2d_15">
      <g>
       <use xlink:href="#m843096179e" x="90" y="34.56" style="stroke: #000000; stroke-width: 0.8"/>
      </g>
     </g>
     <g id="text_15">
      <!-- 100 -->
      <g transform="translate(63.9125 38.359219) scale(0.1 -0.1)">
       <use xlink:href="#DejaVuSans-31"/>
       <use xlink:href="#DejaVuSans-30" transform="translate(63.623047 0)"/>
       <use xlink:href="#DejaVuSans-30" transform="translate(127.246094 0)"/>
      </g>
     </g>
    </g>
   </g>
   <g id="line2d_16">
    <path d="M 115.363636 173.92301 
L 116.798637 184.825634 
L 117.516137 165.8017 
L 119.668638 141.770232 
L 120.386139 137.985567 
L 121.103639 131.342406 
L 121.821139 116.515596 
L 122.53864 124.026277 
L 124.691141 93.545694 
L 125.408641 103.975907 
L 126.843642 114.933381 
L 127.561142 113.481835 
L 129.713643 111.050057 
L 130.431143 125.732028 
L 131.148643 133.962932 
L 131.866144 140.415898 
L 132.583644 139.315599 
L 134.736145 130.596127 
L 135.453645 137.822912 
L 136.171146 134.662262 
L 136.888646 129.164023 
L 137.606146 129.778483 
L 140.476148 140.265198 
L 141.193648 150.047581 
L 141.911148 129.560789 
L 142.628649 132.146047 
L 144.78115 134.403397 
L 145.49865 137.487742 
L 146.21615 160.371234 
L 146.933651 149.220553 
L 147.651151 142.734193 
L 149.803652 116.334321 
L 150.521152 168.69255 
L 151.238652 149.280106 
L 151.956153 148.445141 
L 152.673653 142.958546 
L 154.826154 141.923351 
L 155.543654 144.976972 
L 156.261155 144.216981 
L 156.978655 151.254191 
L 157.696155 152.234699 
L 160.566157 141.373597 
L 161.283657 129.52024 
L 162.001157 123.446503 
L 162.718658 122.538721 
L 164.871159 116.931696 
L 165.588659 105.147716 
L 166.306159 98.100188 
L 167.02366 97.459299 
L 167.74116 113.978542 
L 172.046162 101.622333 
L 172.763662 101.488033 
L 174.916163 100.897878 
L 175.633663 96.2142 
L 177.786164 110.188896 
L 179.938665 112.965835 
L 180.656166 107.903338 
L 182.091166 102.933958 
L 182.808667 104.689199 
L 184.961168 112.732991 
L 185.678668 126.925748 
L 186.396168 130.415964 
L 187.113669 150.910485 
L 187.831169 143.814292 
L 189.98367 139.729108 
L 190.70117 142.438823 
L 191.41867 138.093096 
L 192.136171 142.444094 
L 192.853671 153.902075 
L 195.006172 170.365032 
L 195.723672 173.794752 
L 196.441173 168.201762 
L 197.158673 173.239712 
L 197.876173 166.022106 
L 200.028674 155.117346 
L 200.746175 158.586234 
L 201.463675 163.731916 
L 202.898676 140.7306 
L 205.051177 149.788026 
L 205.768677 146.824898 
L 206.486177 150.617982 
L 207.203678 137.103947 
L 207.921178 128.148552 
L 210.073679 121.673408 
L 210.791179 113.810271 
L 211.508679 116.415541 
L 212.22618 118.531475 
L 212.94368 113.70569 
L 215.096181 113.205607 
L 215.813681 102.297189 
L 216.531182 115.725896 
L 217.248682 116.189631 
L 217.966182 143.932543 
L 220.118683 125.25617 
L 220.836184 123.849576 
L 221.553684 124.757164 
L 222.271184 114.898814 
L 222.988685 116.770262 
L 225.141186 109.367527 
L 225.858686 106.439934 
L 226.576186 96.389021 
L 227.293687 94.755166 
L 228.011187 78.751095 
L 230.163688 95.188924 
L 230.881188 98.329555 
L 232.316189 94.212683 
L 233.033689 115.957567 
L 235.18619 140.909516 
L 235.90369 140.067901 
L 237.338691 151.576923 
L 238.056191 160.929998 
L 240.208692 164.056711 
L 240.926193 161.980749 
L 241.643693 156.112699 
L 242.361193 156.53874 
L 243.078694 169.129414 
L 245.231195 161.752098 
L 245.948695 144.184924 
L 247.383696 159.451681 
L 248.101196 137.89378 
L 250.253697 141.395414 
L 250.971197 136.369015 
L 251.688697 146.809633 
L 252.406198 146.05372 
L 253.123698 144.18717 
L 255.276199 122.280205 
L 255.993699 106.202887 
L 257.4287 132.067534 
L 258.1462 132.338571 
L 260.298701 141.119207 
L 261.016202 131.267856 
L 261.733702 128.556295 
L 262.451202 142.892645 
L 263.168703 153.337596 
L 265.321204 147.444169 
L 266.038704 146.698833 
L 266.756204 155.975364 
L 267.473705 153.884154 
L 270.343706 155.890247 
L 271.061206 158.455516 
L 272.496207 157.329746 
L 273.213707 138.112771 
L 275.366208 125.366137 
L 276.083708 123.311115 
L 276.801209 126.668499 
L 277.518709 137.567877 
L 278.236209 129.34539 
L 280.38871 126.723696 
L 281.106211 124.515299 
L 281.823711 120.016716 
L 282.541211 109.262016 
L 283.258712 116.446264 
L 285.411213 122.313867 
L 286.128713 117.575167 
L 286.846213 120.435453 
L 287.563714 119.319157 
L 288.281214 109.888524 
L 290.433715 109.202814 
L 291.151215 122.686675 
L 292.586216 160.263227 
L 293.303716 159.019356 
L 295.456217 152.010394 
L 296.173717 151.630057 
L 297.608718 151.539501 
L 298.326218 142.368513 
L 300.478719 153.361985 
L 301.19622 163.120161 
L 301.91372 161.132558 
L 302.63122 154.210102 
L 303.348721 172.384524 
L 305.501222 172.978518 
L 306.218722 157.978818 
L 306.936222 168.468028 
L 307.653723 169.338191 
L 308.371223 177.185706 
L 310.523724 187.841615 
L 311.241224 176.999844 
L 311.958724 178.156817 
L 312.676225 167.135352 
L 313.393725 180.750618 
L 315.546226 173.506269 
L 316.263726 190.691018 
L 316.981227 186.717912 
L 317.698727 185.467477 
L 318.416227 178.183793 
L 320.568728 161.568644 
L 321.286229 147.365016 
L 322.721229 141.25944 
L 323.43873 143.462438 
L 325.591231 143.302359 
L 326.308731 131.619232 
L 327.026231 132.092088 
L 327.743732 128.486895 
L 328.461232 143.321168 
L 330.613733 138.542514 
L 331.331233 147.445016 
L 332.048733 148.293153 
L 332.766234 150.99051 
L 333.483734 140.036668 
L 335.636235 148.746208 
L 336.353735 156.064846 
L 337.071236 138.566426 
L 337.788736 149.033136 
L 338.506236 162.133182 
L 340.658737 171.690461 
L 341.376238 165.985068 
L 342.811238 167.156055 
L 343.528739 178.832061 
L 345.68124 176.540715 
L 346.39874 171.844401 
L 347.11624 165.938826 
L 347.833741 163.294341 
L 348.551241 166.203618 
L 350.703742 165.824809 
L 351.421242 134.330146 
L 352.138742 135.808162 
L 352.856243 130.539922 
L 355.726244 116.30931 
L 357.161245 94.162179 
L 357.878745 90.953616 
L 358.596245 83.843885 
L 360.748746 79.548227 
L 361.466247 94.162586 
L 362.183747 101.598314 
L 362.901247 101.281496 
L 363.618748 96.373823 
L 366.488749 123.301232 
L 367.206249 116.909659 
L 367.92375 118.331087 
L 368.64125 115.331159 
L 370.793751 149.531745 
L 371.511251 142.255267 
L 372.228751 141.722943 
L 373.663752 135.261278 
L 376.533753 116.383193 
L 377.251254 113.809961 
L 377.968754 96.728373 
L 380.838755 95.851513 
L 381.556256 93.903427 
L 382.273756 91.601278 
L 382.991256 108.558092 
L 383.708757 107.772598 
L 385.861258 99.313057 
L 386.578758 98.979067 
L 387.296258 101.388805 
L 388.731259 100.190388 
L 390.88376 100.868242 
L 391.60126 99.907914 
L 392.31876 98.193544 
L 393.036261 98.146266 
L 393.753761 141.102717 
L 395.906262 112.098751 
L 396.623762 123.769706 
L 397.341263 126.549671 
L 398.058763 116.235865 
L 398.776263 114.972898 
L 400.928764 118.557503 
L 401.646265 126.231804 
L 402.363765 123.037213 
L 403.081265 125.008361 
L 403.798766 120.934205 
L 405.951267 115.431926 
L 406.668767 127.088707 
L 407.386267 122.982864 
L 408.103768 121.467639 
L 408.821268 130.658063 
L 410.973769 127.65676 
L 411.691269 138.298687 
L 412.408769 143.787838 
L 413.12627 127.696956 
L 413.84377 124.75112 
L 415.996271 144.164378 
L 416.713771 152.080539 
L 417.431272 146.29933 
L 418.148772 150.320381 
L 418.866272 156.485477 
L 421.018773 148.049058 
L 421.736274 150.74432 
L 422.453774 158.274318 
L 423.171274 159.189206 
L 423.888775 145.623258 
L 426.041276 151.088437 
L 426.758776 147.652477 
L 427.476276 146.146529 
L 428.193777 134.890434 
L 428.911277 118.965038 
L 431.063778 133.830241 
L 431.781278 144.770361 
L 432.498778 147.942841 
L 433.216279 149.424008 
L 433.933779 136.127735 
L 436.08628 142.109328 
L 436.80378 137.226922 
L 437.521281 145.88257 
L 438.238781 152.17772 
L 438.956281 153.950115 
L 441.108782 152.865952 
L 441.826283 145.193835 
L 442.543783 149.405798 
L 443.261283 156.53373 
L 443.978784 148.960103 
L 446.131285 117.655912 
L 446.848785 113.140398 
L 447.566285 105.191462 
L 448.283786 110.691138 
L 449.001286 117.292309 
L 451.153787 110.631614 
L 451.871287 113.050064 
L 452.588787 117.341356 
L 453.306288 118.511125 
L 454.023788 129.754549 
L 456.176289 138.618661 
L 456.893789 155.617591 
L 457.61129 156.279662 
L 458.32879 159.118656 
L 459.04629 162.924498 
L 461.198791 162.069214 
L 461.916292 165.448725 
L 462.633792 166.60348 
L 463.351292 157.490558 
L 466.938794 145.869349 
L 467.656294 152.944737 
L 468.373795 134.346224 
L 469.091295 145.983107 
L 471.243796 149.63687 
L 471.961296 166.2914 
L 473.396297 179.845443 
L 474.113797 180.755507 
L 476.266298 163.921144 
L 476.983798 176.516426 
L 477.701299 173.126126 
L 478.418799 163.090869 
L 479.136299 165.344676 
L 481.2888 165.432401 
L 482.006301 164.08863 
L 482.723801 163.802701 
L 483.441301 166.263847 
L 484.158802 144.264421 
L 486.311303 142.219427 
L 487.028803 139.493512 
L 487.746303 142.868391 
L 488.463804 139.468716 
L 489.181304 163.84995 
L 491.333805 164.589814 
L 492.051305 172.058227 
L 492.768805 182.488054 
L 493.486306 187.912046 
L 494.203806 198.62838 
L 496.356307 204.7985 
L 497.073807 204.850037 
L 497.791308 169.861123 
L 499.226308 174.961803 
L 501.378809 176.307367 
L 502.09631 160.704278 
L 502.81381 165.52612 
L 503.53131 158.438152 
L 504.248811 153.615923 
L 506.401312 154.552422 
L 507.118812 148.699415 
L 508.553813 116.833367 
L 509.271313 104.263767 
L 511.423814 147.295982 
L 513.576315 164.267092 
L 514.293815 153.530967 
L 516.446316 153.596356 
L 517.163816 162.880606 
L 517.881317 156.886303 
L 518.598817 162.081699 
L 519.316317 172.199312 
L 521.468818 171.183187 
L 522.186319 176.653424 
L 523.621319 185.200587 
L 524.33882 164.618342 
L 526.491321 160.517971 
L 527.208821 152.284097 
L 527.926321 151.803318 
L 528.643822 132.432206 
L 529.361322 142.138916 
L 531.513823 138.076373 
L 532.231323 142.400404 
L 532.948823 135.513849 
L 533.666324 135.599417 
L 534.383824 146.872725 
L 536.536325 147.762263 
L 537.253825 156.206474 
L 537.971326 141.650057 
L 538.688826 129.425131 
L 539.406326 132.435623 
L 541.558827 131.488769 
L 542.276328 146.534553 
L 542.993828 132.746463 
L 543.711328 136.856801 
L 544.428829 132.612732 
L 546.58133 135.315913 
L 547.29883 147.975852 
L 548.01633 156.991253 
L 548.733831 159.678878 
L 549.451331 153.883826 
L 551.603832 154.560624 
L 552.321332 153.712822 
L 553.038832 165.463749 
L 553.756333 160.440836 
L 554.473833 162.811978 
L 556.626334 146.860936 
L 557.343834 152.188063 
L 558.061335 155.269444 
L 559.496335 163.919267 
L 561.648836 169.934104 
L 562.366337 170.611151 
L 563.083837 170.039404 
L 563.801337 174.571287 
L 564.518838 151.152137 
L 566.671339 134.49548 
L 567.388839 107.009859 
L 568.106339 99.068718 
L 568.82384 95.867008 
L 569.54134 125.314578 
L 571.693841 120.448673 
L 572.411341 108.805551 
L 573.128841 123.855399 
L 574.563842 129.546678 
L 576.716343 149.235403 
L 577.433843 152.008302 
L 578.151344 166.061657 
L 578.868844 167.740072 
L 579.586344 168.791771 
L 582.456346 155.533441 
L 583.173846 151.191374 
L 583.891346 140.824633 
L 584.608847 157.789488 
L 586.761348 158.97399 
L 587.478848 136.777379 
L 588.196348 127.707692 
L 588.913849 135.079988 
L 589.631349 130.311583 
L 591.78385 136.557264 
L 592.50135 131.188838 
L 593.21885 131.466383 
L 593.936351 119.363776 
L 594.653851 130.286253 
L 596.806352 132.360233 
L 597.523852 135.291466 
L 598.241353 134.85543 
L 598.958853 148.753378 
L 599.676353 144.763561 
L 601.828854 141.310581 
L 602.546355 151.817243 
L 603.263855 140.59893 
L 603.981355 137.622937 
L 604.698856 155.609361 
L 606.851357 158.614291 
L 608.286357 163.830274 
L 609.003858 168.414009 
L 609.721358 188.826539 
L 611.873859 199.982498 
L 612.591359 175.901412 
L 613.308859 181.92445 
L 614.02636 190.541989 
L 614.74386 193.789787 
L 616.896361 181.687158 
L 617.613861 171.87562 
L 618.331362 171.502083 
L 619.048862 185.126101 
L 619.766362 186.572661 
L 621.918863 193.239325 
L 622.636364 175.079199 
L 622.636364 175.079199 
" clip-path="url(#p144304a4c8)" style="fill: none; stroke: #1f77b4; stroke-width: 1.5; stroke-linecap: square"/>
   </g>
   <g id="line2d_17">
    <path d="M 90 101.088 
L 648 101.088 
" clip-path="url(#p144304a4c8)" style="fill: none; stroke-dasharray: 5.55,2.4; stroke-dashoffset: 0; stroke: #ff0000; stroke-opacity: 0.7; stroke-width: 1.5"/>
   </g>
   <g id="line2d_18">
    <path d="M 90 189.792 
L 648 189.792 
" clip-path="url(#p144304a4c8)" style="fill: none; stroke-dasharray: 5.55,2.4; stroke-dashoffset: 0; stroke: #008000; stroke-opacity: 0.7; stroke-width: 1.5"/>
   </g>
   <g id="patch_3">
    <path d="M 90 256.32 
L 90 34.56 
" style="fill: none; stroke: #000000; stroke-width: 0.8; stroke-linejoin: miter; stroke-linecap: square"/>
   </g>
   <g id="patch_4">
    <path d="M 648 256.32 
L 648 34.56 
" style="fill: none; stroke: #000000; stroke-width: 0.8; stroke-linejoin: miter; stroke-linecap: square"/>
   </g>
   <g id="patch_5">
    <path d="M 90 256.32 
L 648 256.32 
" style="fill: none; stroke: #000000; stroke-width: 0.8; stroke-linejoin: miter; stroke-linecap: square"/>
   </g>
   <g id="patch_6">
    <path d="M 90 34.56 
L 648 34.56 
" style="fill: none; stroke: #000000; stroke-width: 0.8; stroke-linejoin: miter; stroke-linecap: square"/>
   </g>
   <g id="text_16">
    <!-- RSI for ICICIBANK.NS -->
    <g transform="translate(306.649688 28.56) scale(0.12 -0.12)">
     <defs>
      <path id="DejaVuSans-52" d="M 2841 2188 
Q 3044 2119 3236 1894 
Q 3428 1669 3622 1275 
L 4263 0 
L 3584 0 
L 2988 1197 
Q 2756 1666 2539 1819 
Q 2322 1972 1947 1972 
L 1259 1972 
L 1259 0 
L 628 0 
L 628 4666 
L 2053 4666 
Q 2853 4666 3247 4331 
Q 3641 3997 3641 3322 
Q 3641 2881 3436 2590 
Q 3231 2300 2841 2188 
z
M 1259 4147 
L 1259 2491 
L 2053 2491 
Q 2509 2491 2742 2702 
Q 2975 2913 2975 3322 
Q 2975 3731 2742 3939 
Q 2509 4147 2053 4147 
L 1259 4147 
z
" transform="scale(0.015625)"/>
      <path id="DejaVuSans-53" d="M 3425 4513 
L 3425 3897 
Q 3066 4069 2747 4153 
Q 2428 4238 2131 4238 
Q 1616 4238 1336 4038 
Q 1056 3838 1056 3469 
Q 1056 3159 1242 3001 
Q 1428 2844 1947 2747 
L 2328 2669 
Q 3034 2534 3370 2195 
Q 3706 1856 3706 1288 
Q 3706 609 3251 259 
Q 2797 -91 1919 -91 
Q 1588 -91 1214 -16 
Q 841 59 441 206 
L 441 856 
Q 825 641 1194 531 
Q 1563 422 1919 422 
Q 2459 422 2753 634 
Q 3047 847 3047 1241 
Q 3047 1584 2836 1778 
Q 2625 1972 2144 2069 
L 1759 2144 
Q 1053 2284 737 2584 
Q 422 2884 422 3419 
Q 422 4038 858 4394 
Q 1294 4750 2059 4750 
Q 2388 4750 2728 4690 
Q 3069 4631 3425 4513 
z
" transform="scale(0.015625)"/>
      <path id="DejaVuSans-49" d="M 628 4666 
L 1259 4666 
L 1259 0 
L 628 0 
L 628 4666 
z
" transform="scale(0.015625)"/>
      <path id="DejaVuSans-20" transform="scale(0.015625)"/>
      <path id="DejaVuSans-66" d="M 2375 4863 
L 2375 4384 
L 1825 4384 
Q 1516 4384 1395 4259 
Q 1275 4134 1275 3809 
L 1275 3500 
L 2222 3500 
L 2222 3053 
L 1275 3053 
L 1275 0 
L 697 0 
L 697 3053 
L 147 3053 
L 147 3500 
L 697 3500 
L 697 3744 
Q 697 4328 969 4595 
Q 1241 4863 1831 4863 
L 2375 4863 
z
" transform="scale(0.015625)"/>
      <path id="DejaVuSans-6f" d="M 1959 3097 
Q 1497 3097 1228 2736 
Q 959 2375 959 1747 
Q 959 1119 1226 758 
Q 1494 397 1959 397 
Q 2419 397 2687 759 
Q 2956 1122 2956 1747 
Q 2956 2369 2687 2733 
Q 2419 3097 1959 3097 
z
M 1959 3584 
Q 2709 3584 3137 3096 
Q 3566 2609 3566 1747 
Q 3566 888 3137 398 
Q 2709 -91 1959 -91 
Q 1206 -91 779 398 
Q 353 888 353 1747 
Q 353 2609 779 3096 
Q 1206 3584 1959 3584 
z
" transform="scale(0.015625)"/>
      <path id="DejaVuSans-72" d="M 2631 2963 
Q 2534 3019 2420 3045 
Q 2306 3072 2169 3072 
Q 1681 3072 1420 2755 
Q 1159 2438 1159 1844 
L 1159 0 
L 581 0 
L 581 3500 
L 1159 3500 
L 1159 2956 
Q 1341 3275 1631 3429 
Q 1922 3584 2338 3584 
Q 2397 3584 2469 3576 
Q 2541 3569 2628 3553 
L 2631 2963 
z
" transform="scale(0.015625)"/>
      <path id="DejaVuSans-43" d="M 4122 4306 
L 4122 3641 
Q 3803 3938 3442 4084 
Q 3081 4231 2675 4231 
Q 1875 4231 1450 3742 
Q 1025 3253 1025 2328 
Q 1025 1406 1450 917 
Q 1875 428 2675 428 
Q 3081 428 3442 575 
Q 3803 722 4122 1019 
L 4122 359 
Q 3791 134 3420 21 
Q 3050 -91 2638 -91 
Q 1578 -91 968 557 
Q 359 1206 359 2328 
Q 359 3453 968 4101 
Q 1578 4750 2638 4750 
Q 3056 4750 3426 4639 
Q 3797 4528 4122 4306 
z
" transform="scale(0.015625)"/>
      <path id="DejaVuSans-42" d="M 1259 2228 
L 1259 519 
L 2272 519 
Q 2781 519 3026 730 
Q 3272 941 3272 1375 
Q 3272 1813 3026 2020 
Q 2781 2228 2272 2228 
L 1259 2228 
z
M 1259 4147 
L 1259 2741 
L 2194 2741 
Q 2656 2741 2882 2914 
Q 3109 3088 3109 3444 
Q 3109 3797 2882 3972 
Q 2656 4147 2194 4147 
L 1259 4147 
z
M 628 4666 
L 2241 4666 
Q 2963 4666 3353 4366 
Q 3744 4066 3744 3513 
Q 3744 3084 3544 2831 
Q 3344 2578 2956 2516 
Q 3422 2416 3680 2098 
Q 3938 1781 3938 1306 
Q 3938 681 3513 340 
Q 3088 0 2303 0 
L 628 0 
L 628 4666 
z
" transform="scale(0.015625)"/>
      <path id="DejaVuSans-41" d="M 2188 4044 
L 1331 1722 
L 3047 1722 
L 2188 4044 
z
M 1831 4666 
L 2547 4666 
L 4325 0 
L 3669 0 
L 3244 1197 
L 1141 1197 
L 716 0 
L 50 0 
L 1831 4666 
z
" transform="scale(0.015625)"/>
      <path id="DejaVuSans-4e" d="M 628 4666 
L 1478 4666 
L 3547 763 
L 3547 4666 
L 4159 4666 
L 4159 0 
L 3309 0 
L 1241 3903 
L 1241 0 
L 628 0 
L 628 4666 
z
" transform="scale(0.015625)"/>
      <path id="DejaVuSans-4b" d="M 628 4666 
L 1259 4666 
L 1259 2694 
L 3353 4666 
L 4166 4666 
L 1850 2491 
L 4331 0 
L 3500 0 
L 1259 2247 
L 1259 0 
L 628 0 
L 628 4666 
z
" transform="scale(0.015625)"/>
      <path id="DejaVuSans-2e" d="M 684 794 
L 1344 794 
L 1344 0 
L 684 0 
L 684 794 
z
" transform="scale(0.015625)"/>
     </defs>
     <use xlink:href="#DejaVuSans-52"/>
     <use xlink:href="#DejaVuSans-53" transform="translate(69.482422 0)"/>
     <use xlink:href="#DejaVuSans-49" transform="translate(132.958984 0)"/>
     <use xlink:href="#DejaVuSans-20" transform="translate(162.451172 0)"/>
     <use xlink:href="#DejaVuSans-66" transform="translate(194.238281 0)"/>
     <use xlink:href="#DejaVuSans-6f" transform="translate(229.443359 0)"/>
     <use xlink:href="#DejaVuSans-72" transform="translate(290.625 0)"/>
     <use xlink:href="#DejaVuSans-20" transform="translate(331.738281 0)"/>
     <use xlink:href="#DejaVuSans-49" transform="translate(363.525391 0)"/>
     <use xlink:href="#DejaVuSans-43" transform="translate(393.017578 0)"/>
     <use xlink:href="#DejaVuSans-49" transform="translate(462.841797 0)"/>
     <use xlink:href="#DejaVuSans-43" transform="translate(492.333984 0)"/>
     <use xlink:href="#DejaVuSans-49" transform="translate(562.158203 0)"/>
     <use xlink:href="#DejaVuSans-42" transform="translate(591.650391 0)"/>
     <use xlink:href="#DejaVuSans-41" transform="translate(660.253906 0)"/>
     <use xlink:href="#DejaVuSans-4e" transform="translate(728.662109 0)"/>
     <use xlink:href="#DejaVuSans-4b" transform="translate(803.466797 0)"/>
     <use xlink:href="#DejaVuSans-2e" transform="translate(869.042969 0)"/>
     <use xlink:href="#DejaVuSans-4e" transform="translate(900.830078 0)"/>
     <use xlink:href="#DejaVuSans-53" transform="translate(975.634766 0)"/>
    </g>
   </g>
  </g>
 </g>
 <defs>
  <clipPath id="p144304a4c8">
   <rect x="90" y="34.56" width="558" height="221.76"/>
  </clipPath>
 </defs>
</svg>
