<?xml version="1.0" encoding="utf-8" standalone="no"?>
<!DOCTYPE svg PUBLIC "-//W3C//DTD SVG 1.1//EN"
  "http://www.w3.org/Graphics/SVG/1.1/DTD/svg11.dtd">
<svg xmlns:xlink="http://www.w3.org/1999/xlink" width="720pt" height="288pt" viewBox="0 0 720 288" xmlns="http://www.w3.org/2000/svg" version="1.1">
 <metadata>
  <rdf:RDF xmlns:dc="http://purl.org/dc/elements/1.1/" xmlns:cc="http://creativecommons.org/ns#" xmlns:rdf="http://www.w3.org/1999/02/22-rdf-syntax-ns#">
   <cc:Work>
    <dc:type rdf:resource="http://purl.org/dc/dcmitype/StillImage"/>
    <dc:date>2026-03-25T15:56:35.202621</dc:date>
    <dc:format>image/svg+xml</dc:format>
    <dc:creator>
     <cc:Agent>
      <dc:title>Matplotlib v3.10.8, https://matplotlib.org/</dc:title>
     </cc:Agent>
    </dc:creator>
   </cc:Work>
  </rdf:RDF>
 </metadata>
 <defs>
  <style type="text/css">*{stroke-linejoin: round; stroke-linecap: butt}</style>
 </defs>
 <g id="figure_1">
  <g id="patch_1">
   <path d="M 0 288 
L 720 288 
L 720 0 
L 0 0 
z
" style="fill: #ffffff"/>
  </g>
  <g id="axes_1">
   <g id="patch_2">
    <path d="M 90 256.32 
L 648 256.32 
L 648 34.56 
L 90 34.56 
z
" style="fill: #ffffff"/>
   </g>
   <g id="FillBetweenPolyCollection_1"/>
   <g id="matplotlib.axis_1">
    <g id="xtick_1">
     <g id="line2d_1">
      <defs>
       <path id="mf4021e89f7" d="M 0 0 
L 0 3.5 
" style="stroke: #000000; stroke-width: 0.8"/>
      </defs>
      <g>
       <use xlink:href="#mf4021e89f7" x="104.601132" y="256.32" style="stroke: #000000; stroke-width: 0.8"/>
      </g>
     </g>
     <g id="text_1">
      <!-- 2024-04 -->
      <g transform="translate(83.709725 270.918437) scale(0.1 -0.1)">
       <defs>
        <path id="DejaVuSans-32" d="M 1228 531 
L 3431 531 
L 3431 0 
L 469 0 
L 469 531 
Q 828 903 1448 1529 
Q 2069 2156 2228 2338 
Q 2531 2678 2651 2914 
Q 2772 3150 2772 3378 
Q 2772 3750 2511 3984 
Q 2250 4219 1831 4219 
Q 1534 4219 1204 4116 
Q 875 4013 500 3803 
L 500 4441 
Q 881 4594 1212 4672 
Q 1544 4750 1819 4750 
Q 2544 4750 2975 4387 
Q 3406 4025 3406 3419 
Q 3406 3131 3298 2873 
Q 3191 2616 2906 2266 
Q 2828 2175 2409 1742 
Q 1991 1309 1228 531 
z
" transform="scale(0.015625)"/>
        <path id="DejaVuSans-30" d="M 2034 4250 
Q 1547 4250 1301 3770 
Q 1056 3291 1056 2328 
Q 1056 1369 1301 889 
Q 1547 409 2034 409 
Q 2525 409 2770 889 
Q 3016 1369 3016 2328 
Q 3016 3291 2770 3770 
Q 2525 4250 2034 4250 
z
M 2034 4750 
Q 2819 4750 3233 4129 
Q 3647 3509 3647 2328 
Q 3647 1150 3233 529 
Q 2819 -91 2034 -91 
Q 1250 -91 836 529 
Q 422 1150 422 2328 
Q 422 3509 836 4129 
Q 1250 4750 2034 4750 
z
" transform="scale(0.015625)"/>
        <path id="DejaVuSans-34" d="M 2419 4116 
L 825 1625 
L 2419 1625 
L 2419 4116 
z
M 2253 4666 
L 3047 4666 
L 3047 1625 
L 3713 1625 
L 3713 1100 
L 3047 1100 
L 3047 0 
L 2419 0 
L 2419 1100 
L 313 1100 
L 313 1709 
L 2253 4666 
z
" transform="scale(0.015625)"/>
        <path id="DejaVuSans-2d" d="M 313 2009 
L 1997 2009 
L 1997 1497 
L 313 1497 
L 313 2009 
z
" transform="scale(0.015625)"/>
       </defs>
       <use xlink:href="#DejaVuSans-32"/>
       <use xlink:href="#DejaVuSans-30" transform="translate(63.623047 0)"/>
       <use xlink:href="#DejaVuSans-32" transform="translate(127.246094 0)"/>
       <use xlink:href="#DejaVuSans-34" transform="translate(190.869141 0)"/>
       <use xlink:href="#DejaVuSans-2d" transform="translate(254.492188 0)"/>
       <use xlink:href="#DejaVuSans-30" transform="translate(290.576172 0)"/>
       <use xlink:href="#DejaVuSans-34" transform="translate(354.199219 0)"/>
      </g>
     </g>
    </g>
    <g id="xtick_2">
     <g id="line2d_2">
      <g>
       <use xlink:href="#mf4021e89f7" x="169.893661" y="256.32" style="stroke: #000000; stroke-width: 0.8"/>
      </g>
     </g>
     <g id="text_2">
      <!-- 2024-07 -->
      <g transform="translate(149.002255 270.918437) scale(0.1 -0.1)">
       <defs>
        <path id="DejaVuSans-37" d="M 525 4666 
L 3525 4666 
L 3525 4397 
L 1831 0 
L 1172 0 
L 2766 4134 
L 525 4134 
L 525 4666 
z
" transform="scale(0.015625)"/>
       </defs>
       <use xlink:href="#DejaVuSans-32"/>
       <use xlink:href="#DejaVuSans-30" transform="translate(63.623047 0)"/>
       <use xlink:href="#DejaVuSans-32" transform="translate(127.246094 0)"/>
       <use xlink:href="#DejaVuSans-34" transform="translate(190.869141 0)"/>
       <use xlink:href="#DejaVuSans-2d" transform="translate(254.492188 0)"/>
       <use xlink:href="#DejaVuSans-30" transform="translate(290.576172 0)"/>
       <use xlink:href="#DejaVuSans-37" transform="translate(354.199219 0)"/>
      </g>
     </g>
    </g>
    <g id="xtick_3">
     <g id="line2d_3">
      <g>
       <use xlink:href="#mf4021e89f7" x="235.90369" y="256.32" style="stroke: #000000; stroke-width: 0.8"/>
      </g>
     </g>
     <g id="text_3">
      <!-- 2024-10 -->
      <g transform="translate(215.012284 270.918437) scale(0.1 -0.1)">
       <defs>
        <path id="DejaVuSans-31" d="M 794 531 
L 1825 531 
L 1825 4091 
L 703 3866 
L 703 4441 
L 1819 4666 
L 2450 4666 
L 2450 531 
L 3481 531 
L 3481 0 
L 794 0 
L 794 531 
z
" transform="scale(0.015625)"/>
       </defs>
       <use xlink:href="#DejaVuSans-32"/>
       <use xlink:href="#DejaVuSans-30" transform="translate(63.623047 0)"/>
       <use xlink:href="#DejaVuSans-32" transform="translate(127.246094 0)"/>
       <use xlink:href="#DejaVuSans-34" transform="translate(190.869141 0)"/>
       <use xlink:href="#DejaVuSans-2d" transform="translate(254.492188 0)"/>
       <use xlink:href="#DejaVuSans-31" transform="translate(290.576172 0)"/>
       <use xlink:href="#DejaVuSans-30" transform="translate(354.199219 0)"/>
      </g>
     </g>
    </g>
    <g id="xtick_4">
     <g id="line2d_4">
      <g>
       <use xlink:href="#mf4021e89f7" x="301.91372" y="256.32" style="stroke: #000000; stroke-width: 0.8"/>
      </g>
     </g>
     <g id="text_4">
      <!-- 2025-01 -->
      <g transform="translate(281.022314 270.918437) scale(0.1 -0.1)">
       <defs>
        <path id="DejaVuSans-35" d="M 691 4666 
L 3169 4666 
L 3169 4134 
L 1269 4134 
L 1269 2991 
Q 1406 3038 1543 3061 
Q 1681 3084 1819 3084 
Q 2600 3084 3056 2656 
Q 3513 2228 3513 1497 
Q 3513 744 3044 326 
Q 2575 -91 1722 -91 
Q 1428 -91 1123 -41 
Q 819 9 494 109 
L 494 744 
Q 775 591 1075 516 
Q 1375 441 1709 441 
Q 2250 441 2565 725 
Q 2881 1009 2881 1497 
Q 2881 1984 2565 2268 
Q 2250 2553 1709 2553 
Q 1456 2553 1204 2497 
Q 953 2441 691 2322 
L 691 4666 
z
" transform="scale(0.015625)"/>
       </defs>
       <use xlink:href="#DejaVuSans-32"/>
       <use xlink:href="#DejaVuSans-30" transform="translate(63.623047 0)"/>
       <use xlink:href="#DejaVuSans-32" transform="translate(127.246094 0)"/>
       <use xlink:href="#DejaVuSans-35" transform="translate(190.869141 0)"/>
       <use xlink:href="#DejaVuSans-2d" transform="translate(254.492188 0)"/>
       <use xlink:href="#DejaVuSans-30" transform="translate(290.576172 0)"/>
       <use xlink:href="#DejaVuSans-31" transform="translate(354.199219 0)"/>
      </g>
     </g>
    </g>
    <g id="xtick_5">
     <g id="line2d_5">
      <g>
       <use xlink:href="#mf4021e89f7" x="366.488749" y="256.32" style="stroke: #000000; stroke-width: 0.8"/>
      </g>
     </g>
     <g id="text_5">
      <!-- 2025-04 -->
      <g transform="translate(345.597343 270.918437) scale(0.1 -0.1)">
       <use xlink:href="#DejaVuSans-32"/>
       <use xlink:href="#DejaVuSans-30" transform="translate(63.623047 0)"/>
       <use xlink:href="#DejaVuSans-32" transform="translate(127.246094 0)"/>
       <use xlink:href="#DejaVuSans-35" transform="translate(190.869141 0)"/>
       <use xlink:href="#DejaVuSans-2d" transform="translate(254.492188 0)"/>
       <use xlink:href="#DejaVuSans-30" transform="translate(290.576172 0)"/>
       <use xlink:href="#DejaVuSans-34" transform="translate(354.199219 0)"/>
      </g>
     </g>
    </g>
    <g id="xtick_6">
     <g id="line2d_6">
      <g>
       <use xlink:href="#mf4021e89f7" x="431.781278" y="256.32" style="stroke: #000000; stroke-width: 0.8"/>
      </g>
     </g>
     <g id="text_6">
      <!-- 2025-07 -->
      <g transform="translate(410.889872 270.918437) scale(0.1 -0.1)">
       <use xlink:href="#DejaVuSans-32"/>
       <use xlink:href="#DejaVuSans-30" transform="translate(63.623047 0)"/>
       <use xlink:href="#DejaVuSans-32" transform="translate(127.246094 0)"/>
       <use xlink:href="#DejaVuSans-35" transform="translate(190.869141 0)"/>
       <use xlink:href="#DejaVuSans-2d" transform="translate(254.492188 0)"/>
       <use xlink:href="#DejaVuSans-30" transform="translate(290.576172 0)"/>
       <use xlink:href="#DejaVuSans-37" transform="translate(354.199219 0)"/>
      </g>
     </g>
    </g>
    <g id="xtick_7">
     <g id="line2d_7">
      <g>
       <use xlink:href="#mf4021e89f7" x="497.791308" y="256.32" style="stroke: #000000; stroke-width: 0.8"/>
      </g>
     </g>
     <g id="text_7">
      <!-- 2025-10 -->
      <g transform="translate(476.899901 270.918437) scale(0.1 -0.1)">
       <use xlink:href="#DejaVuSans-32"/>
       <use xlink:href="#DejaVuSans-30" transform="translate(63.623047 0)"/>
       <use xlink:href="#DejaVuSans-32" transform="translate(127.246094 0)"/>
       <use xlink:href="#DejaVuSans-35" transform="translate(190.869141 0)"/>
       <use xlink:href="#DejaVuSans-2d" transform="translate(254.492188 0)"/>
       <use xlink:href="#DejaVuSans-31" transform="translate(290.576172 0)"/>
       <use xlink:href="#DejaVuSans-30" transform="translate(354.199219 0)"/>
      </g>
     </g>
    </g>
    <g id="xtick_8">
     <g id="line2d_8">
      <g>
       <use xlink:href="#mf4021e89f7" x="563.801337" y="256.32" style="stroke: #000000; stroke-width: 0.8"/>
      </g>
     </g>
     <g id="text_8">
      <!-- 2026-01 -->
      <g transform="translate(542.909931 270.918437) scale(0.1 -0.1)">
       <defs>
        <path id="DejaVuSans-36" d="M 2113 2584 
Q 1688 2584 1439 2293 
Q 1191 2003 1191 1497 
Q 1191 994 1439 701 
Q 1688 409 2113 409 
Q 2538 409 2786 701 
Q 3034 994 3034 1497 
Q 3034 2003 2786 2293 
Q 2538 2584 2113 2584 
z
M 3366 4563 
L 3366 3988 
Q 3128 4100 2886 4159 
Q 2644 4219 2406 4219 
Q 1781 4219 1451 3797 
Q 1122 3375 1075 2522 
Q 1259 2794 1537 2939 
Q 1816 3084 2150 3084 
Q 2853 3084 3261 2657 
Q 3669 2231 3669 1497 
Q 3669 778 3244 343 
Q 2819 -91 2113 -91 
Q 1303 -91 875 529 
Q 447 1150 447 2328 
Q 447 3434 972 4092 
Q 1497 4750 2381 4750 
Q 2619 4750 2861 4703 
Q 3103 4656 3366 4563 
z
" transform="scale(0.015625)"/>
       </defs>
       <use xlink:href="#DejaVuSans-32"/>
       <use xlink:href="#DejaVuSans-30" transform="translate(63.623047 0)"/>
       <use xlink:href="#DejaVuSans-32" transform="translate(127.246094 0)"/>
       <use xlink:href="#DejaVuSans-36" transform="translate(190.869141 0)"/>
       <use xlink:href="#DejaVuSans-2d" transform="translate(254.492188 0)"/>
       <use xlink:href="#DejaVuSans-30" transform="translate(290.576172 0)"/>
       <use xlink:href="#DejaVuSans-31" transform="translate(354.199219 0)"/>
      </g>
     </g>
    </g>
    <g id="xtick_9">
     <g id="line2d_9">
      <g>
       <use xlink:href="#mf4021e89f7" x="628.376366" y="256.32" style="stroke: #000000; stroke-width: 0.8"/>
      </g>
     </g>
     <g id="text_9">
      <!-- 2026-04 -->
      <g transform="translate(607.48496 270.918437) scale(0.1 -0.1)">
       <use xlink:href="#DejaVuSans-32"/>
       <use xlink:href="#DejaVuSans-30" transform="translate(63.623047 0)"/>
       <use xlink:href="#DejaVuSans-32" transform="translate(127.246094 0)"/>
       <use xlink:href="#DejaVuSans-36" transform="translate(190.869141 0)"/>
       <use xlink:href="#DejaVuSans-2d" transform="translate(254.492188 0)"/>
       <use xlink:href="#DejaVuSans-30" transform="translate(290.576172 0)"/>
       <use xlink:href="#DejaVuSans-34" transform="translate(354.199219 0)"/>
      </g>
     </g>
    </g>
   </g>
   <g id="matplotlib.axis_2">
    <g id="ytick_1">
     <g id="line2d_10">
      <defs>
       <path id="m14160c3e8b" d="M 0 0 
L -3.5 0 
" style="stroke: #000000; stroke-width: 0.8"/>
      </defs>
      <g>
       <use xlink:href="#m14160c3e8b" x="90" y="256.32" style="stroke: #000000; stroke-width: 0.8"/>
      </g>
     </g>
     <g id="text_10">
      <!-- 0 -->
      <g transform="translate(76.6375 260.119219) scale(0.1 -0.1)">
       <use xlink:href="#DejaVuSans-30"/>
      </g>
     </g>
    </g>
    <g id="ytick_2">
     <g id="line2d_11">
      <g>
       <use xlink:href="#m14160c3e8b" x="90" y="211.968" style="stroke: #000000; stroke-width: 0.8"/>
      </g>
     </g>
     <g id="text_11">
      <!-- 20 -->
      <g transform="translate(70.275 215.767219) scale(0.1 -0.1)">
       <use xlink:href="#DejaVuSans-32"/>
       <use xlink:href="#DejaVuSans-30" transform="translate(63.623047 0)"/>
      </g>
     </g>
    </g>
    <g id="ytick_3">
     <g id="line2d_12">
      <g>
       <use xlink:href="#m14160c3e8b" x="90" y="167.616" style="stroke: #000000; stroke-width: 0.8"/>
      </g>
     </g>
     <g id="text_12">
      <!-- 40 -->
      <g transform="translate(70.275 171.415219) scale(0.1 -0.1)">
       <use xlink:href="#DejaVuSans-34"/>
       <use xlink:href="#DejaVuSans-30" transform="translate(63.623047 0)"/>
      </g>
     </g>
    </g>
    <g id="ytick_4">
     <g id="line2d_13">
      <g>
       <use xlink:href="#m14160c3e8b" x="90" y="123.264" style="stroke: #000000; stroke-width: 0.8"/>
      </g>
     </g>
     <g id="text_13">
      <!-- 60 -->
      <g transform="translate(70.275 127.063219) scale(0.1 -0.1)">
       <use xlink:href="#DejaVuSans-36"/>
       <use xlink:href="#DejaVuSans-30" transform="translate(63.623047 0)"/>
      </g>
     </g>
    </g>
    <g id="ytick_5">
     <g id="line2d_14">
      <g>
       <use xlink:href="#m14160c3e8b" x="90" y="78.912" style="stroke: #000000; stroke-width: 0.8"/>
      </g>
     </g>
     <g id="text_14">
      <!-- 80 -->
      <g transform="translate(70.275 82.711219) scale(0.1 -0.1)">
       <defs>
        <path id="DejaVuSans-38" d="M 2034 2216 
Q 1584 2216 1326 1975 
Q 1069 1734 1069 1313 
Q 1069 891 1326 650 
Q 1584 409 2034 409 
Q 2484 409 2743 651 
Q 3003 894 3003 1313 
Q 3003 1734 2745 1975 
Q 2488 2216 2034 2216 
z
M 1403 2484 
Q 997 2584 770 2862 
Q 544 3141 544 3541 
Q 544 4100 942 4425 
Q 1341 4750 2034 4750 
Q 2731 4750 3128 4425 
Q 3525 4100 3525 3541 
Q 3525 3141 3298 2862 
Q 3072 2584 2669 2484 
Q 3125 2378 3379 2068 
Q 3634 1759 3634 1313 
Q 3634 634 3220 271 
Q 2806 -91 2034 -91 
Q 1263 -91 848 271 
Q 434 634 434 1313 
Q 434 1759 690 2068 
Q 947 2378 1403 2484 
z
M 1172 3481 
Q 1172 3119 1398 2916 
Q 1625 2713 2034 2713 
Q 2441 2713 2670 2916 
Q 2900 3119 2900 3481 
Q 2900 3844 2670 4047 
Q 2441 4250 2034 4250 
Q 1625 4250 1398 4047 
Q 1172 3844 1172 3481 
z
" transform="scale(0.015625)"/>
       </defs>
       <use xlink:href="#DejaVuSans-38"/>
       <use xlink:href="#DejaVuSans-30" transform="translate(63.623047 0)"/>
      </g>
     </g>
    </g>
    <g id="ytick_6">
     <g id="line2d_15">
      <g>
       <use xlink:href="#m14160c3e8b" x="90" y="34.56" style="stroke: #000000; stroke-width: 0.8"/>
      </g>
     </g>
     <g id="text_15">
      <!-- 100 -->
      <g transform="translate(63.9125 38.359219) scale(0.1 -0.1)">
       <use xlink:href="#DejaVuSans-31"/>
       <use xlink:href="#DejaVuSans-30" transform="translate(63.623047 0)"/>
       <use xlink:href="#DejaVuSans-30" transform="translate(127.246094 0)"/>
      </g>
     </g>
    </g>
   </g>
   <g id="line2d_16">
    <path d="M 115.363636 145.605097 
L 116.798637 160.837884 
L 117.516137 141.571313 
L 119.668638 130.60407 
L 120.386139 129.246881 
L 121.103639 122.803777 
L 121.821139 114.593483 
L 122.53864 127.037144 
L 124.691141 100.924677 
L 125.408641 101.9724 
L 126.843642 108.487323 
L 127.561142 119.987832 
L 129.713643 121.029125 
L 130.431143 141.432718 
L 131.148643 148.985119 
L 131.866144 162.401262 
L 132.583644 163.958751 
L 135.453645 150.160192 
L 136.171146 154.988254 
L 136.888646 145.813713 
L 137.606146 141.610472 
L 140.476148 143.837675 
L 141.193648 152.413945 
L 141.911148 124.91939 
L 142.628649 120.477176 
L 144.78115 114.048879 
L 145.49865 119.029841 
L 146.21615 139.278377 
L 146.933651 134.782025 
L 147.651151 127.612361 
L 149.803652 96.1897 
L 150.521152 164.192654 
L 151.238652 139.102861 
L 151.956153 136.726007 
L 152.673653 131.606175 
L 154.826154 131.899043 
L 155.543654 132.950398 
L 156.261155 130.744951 
L 156.978655 131.51507 
L 157.696155 129.503154 
L 160.566157 123.863128 
L 161.283657 112.929457 
L 162.001157 108.980512 
L 162.718658 111.466013 
L 164.871159 110.98158 
L 165.588659 101.363274 
L 166.306159 98.809787 
L 167.02366 100.247714 
L 167.74116 111.526577 
L 172.046162 102.893264 
L 172.763662 112.975232 
L 174.916163 118.148212 
L 175.633663 116.213495 
L 176.351164 124.906556 
L 177.068664 123.6308 
L 177.786164 123.493643 
L 179.938665 120.438246 
L 180.656166 122.096352 
L 182.091166 117.944864 
L 182.808667 128.313659 
L 184.961168 127.999458 
L 185.678668 141.999984 
L 186.396168 153.138578 
L 187.113669 162.297372 
L 187.831169 151.654304 
L 189.98367 148.875798 
L 190.70117 146.463421 
L 191.41867 145.004187 
L 192.136171 144.701072 
L 192.853671 150.981353 
L 195.006172 178.66295 
L 195.723672 184.237717 
L 196.441173 172.72095 
L 197.158673 171.566408 
L 197.876173 161.623625 
L 200.028674 158.854333 
L 200.746175 174.236218 
L 201.463675 176.145674 
L 202.898676 153.619848 
L 205.051177 156.826833 
L 205.768677 145.870399 
L 206.486177 148.679915 
L 207.203678 141.222292 
L 207.921178 142.615296 
L 210.073679 137.123523 
L 210.791179 133.816931 
L 211.508679 138.056539 
L 212.22618 137.802716 
L 212.94368 132.065303 
L 215.096181 129.526715 
L 215.813681 122.572333 
L 216.531182 133.759926 
L 217.248682 131.55772 
L 217.966182 159.926848 
L 220.118683 143.782794 
L 220.836184 139.621484 
L 221.553684 147.221122 
L 222.271184 128.144606 
L 222.988685 124.578004 
L 225.141186 120.023375 
L 225.858686 119.261659 
L 226.576186 108.093144 
L 227.293687 103.116005 
L 228.011187 92.084482 
L 230.163688 88.236282 
L 230.881188 93.38805 
L 231.598688 91.563442 
L 232.316189 87.898354 
L 233.033689 108.175706 
L 235.18619 133.397028 
L 235.90369 134.840765 
L 237.338691 158.788714 
L 238.056191 165.635301 
L 240.208692 180.368725 
L 240.926193 167.539541 
L 241.643693 167.756263 
L 242.361193 155.826528 
L 243.078694 162.05033 
L 245.231195 148.401807 
L 245.948695 146.616039 
L 246.666195 148.756304 
L 247.383696 158.760917 
L 248.101196 141.8621 
L 250.253697 144.536394 
L 250.971197 157.832699 
L 251.688697 158.156144 
L 252.406198 151.498415 
L 253.123698 164.985943 
L 255.276199 154.445898 
L 255.993699 134.8187 
L 256.7112 144.362789 
L 257.4287 150.174273 
L 258.1462 146.435863 
L 260.298701 154.616949 
L 261.016202 136.873943 
L 261.733702 135.097227 
L 262.451202 142.822441 
L 263.168703 149.32997 
L 265.321204 143.363334 
L 266.038704 156.142046 
L 266.756204 171.511585 
L 267.473705 169.608777 
L 270.343706 165.646127 
L 271.061206 159.994817 
L 272.496207 164.126897 
L 273.213707 148.324973 
L 275.366208 130.590928 
L 276.083708 130.905136 
L 276.801209 129.150162 
L 277.518709 137.496401 
L 278.236209 134.827292 
L 280.38871 133.832159 
L 281.823711 114.582102 
L 282.541211 109.839793 
L 283.258712 112.405749 
L 285.411213 115.284183 
L 286.128713 112.480844 
L 287.563714 123.437863 
L 288.281214 116.353558 
L 290.433715 116.433616 
L 291.151215 138.546682 
L 291.868715 154.663362 
L 292.586216 165.516152 
L 293.303716 178.476178 
L 295.456217 164.786971 
L 296.173717 166.18583 
L 297.608718 167.265158 
L 298.326218 163.512197 
L 300.478719 170.200744 
L 301.19622 171.892147 
L 301.91372 165.877941 
L 302.63122 150.951225 
L 303.348721 163.772798 
L 305.501222 180.873929 
L 306.218722 173.607607 
L 307.653723 183.653522 
L 308.371223 193.112643 
L 310.523724 200.198254 
L 311.241224 182.470705 
L 311.958724 181.91394 
L 312.676225 169.162507 
L 313.393725 179.225118 
L 315.546226 161.852283 
L 316.263726 172.310729 
L 316.981227 169.152402 
L 317.698727 171.010425 
L 318.416227 174.094035 
L 320.568728 178.258513 
L 321.286229 160.134253 
L 322.003729 154.081308 
L 322.721229 151.127594 
L 323.43873 145.558319 
L 325.591231 152.843747 
L 326.308731 134.955739 
L 327.026231 131.859671 
L 327.743732 131.182687 
L 328.461232 136.322937 
L 330.613733 140.407799 
L 331.331233 152.739937 
L 332.048733 150.98359 
L 332.766234 153.569736 
L 333.483734 159.162881 
L 335.636235 154.845229 
L 336.353735 158.763109 
L 337.071236 145.754855 
L 337.788736 151.521747 
L 338.506236 159.665989 
L 340.658737 166.658096 
L 341.376238 167.573601 
L 342.811238 163.179619 
L 343.528739 172.016508 
L 345.68124 176.712181 
L 346.39874 172.027375 
L 347.11624 163.472642 
L 347.833741 158.786924 
L 348.551241 162.266738 
L 350.703742 169.461767 
L 351.421242 177.821501 
L 352.138742 169.980463 
L 352.856243 169.832954 
L 355.726244 158.448868 
L 357.161245 122.049975 
L 357.878745 115.230898 
L 358.596245 106.353575 
L 360.748746 92.078492 
L 361.466247 95.091644 
L 362.183747 107.208241 
L 362.901247 102.176165 
L 363.618748 102.52017 
L 366.488749 123.859966 
L 367.206249 115.338694 
L 367.92375 111.549642 
L 368.64125 114.273945 
L 370.793751 151.232269 
L 371.511251 139.572479 
L 372.228751 144.576821 
L 373.663752 131.92827 
L 376.533753 114.128394 
L 377.251254 106.532586 
L 377.968754 96.430875 
L 380.838755 89.276036 
L 381.556256 87.066712 
L 382.273756 92.816552 
L 382.991256 96.377351 
L 383.708757 107.498127 
L 385.861258 100.440743 
L 386.578758 101.313749 
L 387.296258 107.866784 
L 388.731259 107.558557 
L 390.88376 112.093646 
L 391.60126 126.227141 
L 392.31876 121.425039 
L 393.036261 126.707292 
L 393.753761 141.868567 
L 395.906262 117.596913 
L 396.623762 125.477354 
L 397.341263 127.956701 
L 398.058763 120.953942 
L 398.776263 120.967806 
L 400.928764 120.085048 
L 401.646265 131.431075 
L 402.363765 128.36895 
L 403.081265 131.249728 
L 403.798766 123.855553 
L 405.951267 121.144179 
L 406.668767 126.499693 
L 407.386267 125.364977 
L 408.103768 123.002006 
L 408.821268 119.256428 
L 410.973769 116.438026 
L 411.691269 125.68096 
L 413.12627 122.239776 
L 413.84377 106.786912 
L 415.996271 102.657474 
L 416.713771 109.921652 
L 417.431272 115.681927 
L 418.148772 127.81047 
L 418.866272 143.265077 
L 421.018773 133.616836 
L 421.736274 139.77314 
L 422.453774 137.023554 
L 423.171274 143.957893 
L 423.888775 128.203284 
L 426.041276 133.653669 
L 426.758776 125.030833 
L 427.476276 121.796749 
L 428.193777 110.979502 
L 428.911277 107.057792 
L 431.063778 111.48351 
L 431.781278 108.830732 
L 432.498778 124.222457 
L 433.216279 130.585527 
L 433.933779 125.145038 
L 436.08628 127.846699 
L 436.80378 120.747801 
L 437.521281 122.276965 
L 438.238781 131.417394 
L 438.956281 138.19729 
L 441.108782 137.877687 
L 441.826283 130.649 
L 442.543783 126.014089 
L 443.261283 138.807448 
L 443.978784 155.852436 
L 446.131285 136.342765 
L 446.848785 142.152361 
L 447.566285 130.586131 
L 448.283786 135.047167 
L 449.001286 150.139241 
L 451.153787 160.728705 
L 451.871287 156.67871 
L 452.588787 158.438417 
L 453.306288 163.130291 
L 454.023788 171.151151 
L 456.176289 171.086839 
L 456.893789 177.038811 
L 457.61129 174.964601 
L 458.32879 170.363248 
L 459.04629 182.577675 
L 461.198791 163.276837 
L 461.916292 173.955749 
L 462.633792 169.052839 
L 463.351292 163.371349 
L 466.221294 150.452153 
L 466.938794 146.447356 
L 467.656294 151.441061 
L 468.373795 149.518215 
L 469.091295 166.460446 
L 471.243796 166.715491 
L 471.961296 182.175879 
L 473.396297 192.947017 
L 474.113797 195.436797 
L 476.266298 182.276971 
L 476.983798 188.186441 
L 477.701299 173.924164 
L 478.418799 173.653991 
L 479.136299 172.2311 
L 481.2888 169.480942 
L 482.006301 168.319417 
L 482.723801 155.987414 
L 484.158802 146.149663 
L 486.311303 143.323533 
L 487.028803 134.325675 
L 487.746303 123.750187 
L 488.463804 117.348877 
L 489.181304 128.667096 
L 491.333805 135.533914 
L 492.051305 128.500861 
L 492.768805 143.149032 
L 493.486306 148.145395 
L 494.203806 165.571507 
L 496.356307 162.854141 
L 497.073807 156.222185 
L 497.791308 133.736827 
L 499.226308 127.470503 
L 501.378809 115.676719 
L 502.09631 112.883697 
L 502.81381 121.124694 
L 503.53131 117.109737 
L 504.248811 108.262293 
L 506.401312 107.953016 
L 507.118812 113.397502 
L 507.836312 106.670606 
L 508.553813 95.231083 
L 509.271313 90.747903 
L 511.423814 86.225806 
L 512.141314 87.41582 
L 513.576315 86.352437 
L 514.293815 103.982245 
L 516.446316 96.412272 
L 517.163816 94.711289 
L 517.881317 91.805344 
L 518.598817 107.794998 
L 519.316317 118.194708 
L 521.468818 110.853099 
L 522.186319 121.60243 
L 523.621319 131.479358 
L 524.33882 123.204046 
L 526.491321 121.695011 
L 527.208821 116.72129 
L 527.926321 113.422529 
L 528.643822 110.830181 
L 531.513823 97.965453 
L 532.231323 101.098195 
L 532.948823 94.700737 
L 533.666324 92.219756 
L 534.383824 115.095486 
L 536.536325 116.509945 
L 537.253825 117.208089 
L 537.971326 100.526541 
L 538.688826 96.543198 
L 539.406326 96.247995 
L 541.558827 99.963771 
L 542.276328 119.501169 
L 542.993828 117.463254 
L 543.711328 120.274914 
L 544.428829 107.268874 
L 546.58133 130.02509 
L 547.29883 130.646505 
L 548.01633 140.565088 
L 548.733831 132.627626 
L 549.451331 127.232406 
L 551.603832 125.092471 
L 552.321332 141.995634 
L 553.038832 145.863875 
L 553.756333 146.380118 
L 554.473833 140.388069 
L 556.626334 131.947862 
L 557.343834 132.149949 
L 558.061335 137.565393 
L 559.496335 145.310934 
L 561.648836 148.775448 
L 562.366337 138.237871 
L 563.083837 123.115394 
L 563.801337 118.929174 
L 564.518838 106.518508 
L 566.671339 112.070141 
L 567.388839 109.977978 
L 568.106339 116.942402 
L 568.82384 132.130128 
L 569.54134 149.966244 
L 571.693841 142.341148 
L 572.411341 137.612404 
L 573.128841 137.561285 
L 574.563842 120.099068 
L 576.716343 129.277742 
L 578.151344 165.899744 
L 578.868844 152.08952 
L 579.586344 169.887037 
L 582.456346 148.737011 
L 583.173846 139.271001 
L 583.891346 131.380321 
L 584.608847 140.476429 
L 586.761348 161.657808 
L 587.478848 133.663138 
L 588.196348 130.513072 
L 588.913849 134.218208 
L 589.631349 133.198059 
L 591.78385 123.718613 
L 592.50135 124.784098 
L 593.21885 122.67254 
L 593.936351 122.830973 
L 594.653851 137.774365 
L 596.806352 123.065858 
L 597.523852 119.232927 
L 598.241353 113.096172 
L 598.958853 133.701429 
L 599.676353 126.137996 
L 601.828854 124.560656 
L 602.546355 130.068082 
L 603.263855 130.17145 
L 603.981355 127.186295 
L 604.698856 144.364043 
L 606.851357 158.960377 
L 608.286357 176.573655 
L 609.003858 169.296946 
L 609.721358 185.776573 
L 611.873859 201.319558 
L 612.591359 182.755068 
L 613.308859 192.708193 
L 614.02636 197.207981 
L 614.74386 205.413116 
L 616.896361 193.79516 
L 618.331362 178.557532 
L 619.048862 192.563437 
L 619.766362 192.721 
L 621.918863 204.235211 
L 622.636364 186.808111 
L 622.636364 186.808111 
" clip-path="url(#p2fe59f73dc)" style="fill: none; stroke: #1f77b4; stroke-width: 1.5; stroke-linecap: square"/>
   </g>
   <g id="line2d_17">
    <path d="M 90 101.088 
L 648 101.088 
" clip-path="url(#p2fe59f73dc)" style="fill: none; stroke-dasharray: 5.55,2.4; stroke-dashoffset: 0; stroke: #ff0000; stroke-opacity: 0.7; stroke-width: 1.5"/>
   </g>
   <g id="line2d_18">
    <path d="M 90 189.792 
L 648 189.792 
" clip-path="url(#p2fe59f73dc)" style="fill: none; stroke-dasharray: 5.55,2.4; stroke-dashoffset: 0; stroke: #008000; stroke-opacity: 0.7; stroke-width: 1.5"/>
   </g>
   <g id="patch_3">
    <path d="M 90 256.32 
L 90 34.56 
" style="fill: none; stroke: #000000; stroke-width: 0.8; stroke-linejoin: miter; stroke-linecap: square"/>
   </g>
   <g id="patch_4">
    <path d="M 648 256.32 
L 648 34.56 
" style="fill: none; stroke: #000000; stroke-width: 0.8; stroke-linejoin: miter; stroke-linecap: square"/>
   </g>
   <g id="patch_5">
    <path d="M 90 256.32 
L 648 256.32 
" style="fill: none; stroke: #000000; stroke-width: 0.8; stroke-linejoin: miter; stroke-linecap: square"/>
   </g>
   <g id="patch_6">
    <path d="M 90 34.56 
L 648 34.56 
" style="fill: none; stroke: #000000; stroke-width: 0.8; stroke-linejoin: miter; stroke-linecap: square"/>
   </g>
   <g id="text_16">
    <!-- RSI for ^NSEBANK -->
    <g transform="translate(313.426875 28.56) scale(0.12 -0.12)">
     <defs>
      <path id="DejaVuSans-52" d="M 2841 2188 
Q 3044 2119 3236 1894 
Q 3428 1669 3622 1275 
L 4263 0 
L 3584 0 
L 2988 1197 
Q 2756 1666 2539 1819 
Q 2322 1972 1947 1972 
L 1259 1972 
L 1259 0 
L 628 0 
L 628 4666 
L 2053 4666 
Q 2853 4666 3247 4331 
Q 3641 3997 3641 3322 
Q 3641 2881 3436 2590 
Q 3231 2300 2841 2188 
z
M 1259 4147 
L 1259 2491 
L 2053 2491 
Q 2509 2491 2742 2702 
Q 2975 2913 2975 3322 
Q 2975 3731 2742 3939 
Q 2509 4147 2053 4147 
L 1259 4147 
z
" transform="scale(0.015625)"/>
      <path id="DejaVuSans-53" d="M 3425 4513 
L 3425 3897 
Q 3066 4069 2747 4153 
Q 2428 4238 2131 4238 
Q 1616 4238 1336 4038 
Q 1056 3838 1056 3469 
Q 1056 3159 1242 3001 
Q 1428 2844 1947 2747 
L 2328 2669 
Q 3034 2534 3370 2195 
Q 3706 1856 3706 1288 
Q 3706 609 3251 259 
Q 2797 -91 1919 -91 
Q 1588 -91 1214 -16 
Q 841 59 441 206 
L 441 856 
Q 825 641 1194 531 
Q 1563 422 1919 422 
Q 2459 422 2753 634 
Q 3047 847 3047 1241 
Q 3047 1584 2836 1778 
Q 2625 1972 2144 2069 
L 1759 2144 
Q 1053 2284 737 2584 
Q 422 2884 422 3419 
Q 422 4038 858 4394 
Q 1294 4750 2059 4750 
Q 2388 4750 2728 4690 
Q 3069 4631 3425 4513 
z
" transform="scale(0.015625)"/>
      <path id="DejaVuSans-49" d="M 628 4666 
L 1259 4666 
L 1259 0 
L 628 0 
L 628 4666 
z
" transform="scale(0.015625)"/>
      <path id="DejaVuSans-20" transform="scale(0.015625)"/>
      <path id="DejaVuSans-66" d="M 2375 4863 
L 2375 4384 
L 1825 4384 
Q 1516 4384 1395 4259 
Q 1275 4134 1275 3809 
L 1275 3500 
L 2222 3500 
L 2222 3053 
L 1275 3053 
L 1275 0 
L 697 0 
L 697 3053 
L 147 3053 
L 147 3500 
L 697 3500 
L 697 3744 
Q 697 4328 969 4595 
Q 1241 4863 1831 4863 
L 2375 4863 
z
" transform="scale(0.015625)"/>
      <path id="DejaVuSans-6f" d="M 1959 3097 
Q 1497 3097 1228 2736 
Q 959 2375 959 1747 
Q 959 1119 1226 758 
Q 1494 397 1959 397 
Q 2419 397 2687 759 
Q 2956 1122 2956 1747 
Q 2956 2369 2687 2733 
Q 2419 3097 1959 3097 
z
M 1959 3584 
Q 2709 3584 3137 3096 
Q 3566 2609 3566 1747 
Q 3566 888 3137 398 
Q 2709 -91 1959 -91 
Q 1206 -91 779 398 
Q 353 888 353 1747 
Q 353 2609 779 3096 
Q 1206 3584 1959 3584 
z
" transform="scale(0.015625)"/>
      <path id="DejaVuSans-72" d="M 2631 2963 
Q 2534 3019 2420 3045 
Q 2306 3072 2169 3072 
Q 1681 3072 1420 2755 
Q 1159 2438 1159 1844 
L 1159 0 
L 581 0 
L 581 3500 
L 1159 3500 
L 1159 2956 
Q 1341 3275 1631 3429 
Q 1922 3584 2338 3584 
Q 2397 3584 2469 3576 
Q 2541 3569 2628 3553 
L 2631 2963 
z
" transform="scale(0.015625)"/>
      <path id="DejaVuSans-5e" d="M 2988 4666 
L 4684 2925 
L 4056 2925 
L 2681 4159 
L 1306 2925 
L 678 2925 
L 2375 4666 
L 2988 4666 
z
" transform="scale(0.015625)"/>
      <path id="DejaVuSans-4e" d="M 628 4666 
L 1478 4666 
L 3547 763 
L 3547 4666 
L 4159 4666 
L 4159 0 
L 3309 0 
L 1241 3903 
L 1241 0 
L 628 0 
L 628 4666 
z
" transform="scale(0.015625)"/>
      <path id="DejaVuSans-45" d="M 628 4666 
L 3578 4666 
L 3578 4134 
L 1259 4134 
L 1259 2753 
L 3481 2753 
L 3481 2222 
L 1259 2222 
L 1259 531 
L 3634 531 
L 3634 0 
L 628 0 
L 628 4666 
z
" transform="scale(0.015625)"/>
      <path id="DejaVuSans-42" d="M 1259 2228 
L 1259 519 
L 2272 519 
Q 2781 519 3026 730 
Q 3272 941 3272 1375 
Q 3272 1813 3026 2020 
Q 2781 2228 2272 2228 
L 1259 2228 
z
M 1259 4147 
L 1259 2741 
L 2194 2741 
Q 2656 2741 2882 2914 
Q 3109 3088 3109 3444 
Q 3109 3797 2882 3972 
Q 2656 4147 2194 4147 
L 1259 4147 
z
M 628 4666 
L 2241 4666 
Q 2963 4666 3353 4366 
Q 3744 4066 3744 3513 
Q 3744 3084 3544 2831 
Q 3344 2578 2956 2516 
Q 3422 2416 3680 2098 
Q 3938 1781 3938 1306 
Q 3938 681 3513 340 
Q 3088 0 2303 0 
L 628 0 
L 628 4666 
z
" transform="scale(0.015625)"/>
      <path id="DejaVuSans-41" d="M 2188 4044 
L 1331 1722 
L 3047 1722 
L 2188 4044 
z
M 1831 4666 
L 2547 4666 
L 4325 0 
L 3669 0 
L 3244 1197 
L 1141 1197 
L 716 0 
L 50 0 
L 1831 4666 
z
" transform="scale(0.015625)"/>
      <path id="DejaVuSans-4b" d="M 628 4666 
L 1259 4666 
L 1259 2694 
L 3353 4666 
L 4166 4666 
L 1850 2491 
L 4331 0 
L 3500 0 
L 1259 2247 
L 1259 0 
L 628 0 
L 628 4666 
z
" transform="scale(0.015625)"/>
     </defs>
     <use xlink:href="#DejaVuSans-52"/>
     <use xlink:href="#DejaVuSans-53" transform="translate(69.482422 0)"/>
     <use xlink:href="#DejaVuSans-49" transform="translate(132.958984 0)"/>
     <use xlink:href="#DejaVuSans-20" transform="translate(162.451172 0)"/>
     <use xlink:href="#DejaVuSans-66" transform="translate(194.238281 0)"/>
     <use xlink:href="#DejaVuSans-6f" transform="translate(229.443359 0)"/>
     <use xlink:href="#DejaVuSans-72" transform="translate(290.625 0)"/>
     <use xlink:href="#DejaVuSans-20" transform="translate(331.738281 0)"/>
     <use xlink:href="#DejaVuSans-5e" transform="translate(363.525391 0)"/>
     <use xlink:href="#DejaVuSans-4e" transform="translate(447.314453 0)"/>
     <use xlink:href="#DejaVuSans-53" transform="translate(522.119141 0)"/>
     <use xlink:href="#DejaVuSans-45" transform="translate(585.595703 0)"/>
     <use xlink:href="#DejaVuSans-42" transform="translate(648.779297 0)"/>
     <use xlink:href="#DejaVuSans-41" transform="translate(717.382812 0)"/>
     <use xlink:href="#DejaVuSans-4e" transform="translate(785.791016 0)"/>
     <use xlink:href="#DejaVuSans-4b" transform="translate(860.595703 0)"/>
    </g>
   </g>
  </g>
 </g>
 <defs>
  <clipPath id="p2fe59f73dc">
   <rect x="90" y="34.56" width="558" height="221.76"/>
  </clipPath>
 </defs>
</svg>
